<svg version="1.2" xmlns="http://www.w3.org/2000/svg" viewBox="0 0 600 600" width="600" height="600">
	<title>LightState_11-ai</title>
	<style>
		.s0 { fill: #e0e7ff } 
		.s1 { fill: #062841 } 
		.s2 { fill: #062841 } 
		.s3 { fill: current } 
	</style>
	<g id="_Artboards_">
	</g>
	<g id="&lt;Layer&gt;">
		<g id="&lt;Group&gt;">
			<g id="&lt;Group&gt;">
				<g id="&lt;Group&gt;">
					<g id="&lt;Group&gt;">
						<g id="&lt;Group&gt;">
							<path id="&lt;Path&gt;" class="s0" d="m75.9 499l-20.7-15.4c1.6 1.2 3.7 1.9 6.1 1.9l20.7 15.4c-2.4 0-4.4-0.7-6.1-1.9z"/>
						</g>
						<g id="&lt;Group&gt;">
							<path id="&lt;Path&gt;" class="s0" d="m554.8 126.4l20.7 15.3c3.1 2.3 4.7 6.2 4.1 10.7l-20.8-15.4c0.7-4.5-1-8.4-4-10.6z"/>
						</g>
						<g id="&lt;Group&gt;">
							<path id="&lt;Path&gt;" class="s0" d="m497.3 485.5l20.7 15.4h-436l-20.7-15.4z"/>
						</g>
						<g id="&lt;Group&gt;">
							<path id="&lt;Path&gt;" class="s0" d="m558.8 137l20.8 15.4-47.9 335.9-20.7-15.4z"/>
						</g>
						<g id="&lt;Group&gt;">
							<path id="&lt;Path&gt;" class="s0" d="m548.7 124.4c6.6 0 11.1 5.7 10.1 12.6l-47.8 335.9c-1 7-7.1 12.6-13.7 12.6h-436c-6.6 0-11.1-5.6-10.2-12.6l47.9-335.9c1-6.9 7.1-12.6 13.7-12.6z"/>
						</g>
						<g id="&lt;Group&gt;">
							<path id="&lt;Path&gt;" class="s0" d="m511 472.9l20.7 15.4c-1 7-7.1 12.6-13.7 12.6l-20.7-15.4c6.6 0 12.7-5.6 13.7-12.6z"/>
						</g>
					</g>
				</g>
				<g id="&lt;Group&gt;">
					<g id="&lt;Group&gt;">
						<g id="&lt;Group&gt;">
							<path id="&lt;Path&gt;" class="s1" d="m79.8 493.6l-20.7-15.3c0.8 0.6 1.9 0.9 3.1 0.9l20.7 15.4c-1.2 0-2.2-0.4-3.1-1z"/>
						</g>
						<g id="&lt;Group&gt;">
							<path id="&lt;Path&gt;" class="s1" d="m550.9 131.7l20.7 15.3c1.5 1.2 2.3 3.1 2 5.4l-20.7-15.4c0.3-2.2-0.5-4.2-2-5.3z"/>
						</g>
						<g id="&lt;Group&gt;">
							<path id="&lt;Path&gt;" class="s1" d="m498.2 479.2l20.7 15.4h-436l-20.7-15.4z"/>
						</g>
						<g id="&lt;Group&gt;">
							<path id="&lt;Path&gt;" class="s1" d="m552.9 137l20.7 15.4-47.8 335.9-20.8-15.4z"/>
						</g>
						<g id="&lt;Group&gt;">
							<path id="&lt;Path&gt;" class="s1" d="m547.8 130.7c3.3 0 5.6 2.8 5.1 6.3l-47.9 335.9c-0.5 3.5-3.5 6.3-6.8 6.3h-436c-3.3 0-5.6-2.8-5.1-6.3l47.8-335.9c0.5-3.5 3.6-6.3 6.9-6.3z"/>
						</g>
						<g id="&lt;Group&gt;">
							<path id="&lt;Path&gt;" class="s1" d="m505 472.9l20.8 15.4c-0.5 3.5-3.6 6.3-6.9 6.3l-20.7-15.4c3.3 0 6.3-2.8 6.8-6.3z"/>
						</g>
					</g>
				</g>
				<g id="&lt;Group&gt;">
					<g id="&lt;Group&gt;">
						<g id="&lt;Group&gt;">
							<path id="&lt;Path&gt;" class="s2" d="m73.1 488.8l-13.8-10.3c0.8 0.6 1.8 1 3 1l13.8 10.2c-1.2 0-2.2-0.3-3-0.9z"/>
						</g>
						<g id="&lt;Group&gt;">
							<path id="&lt;Path&gt;" class="s2" d="m551 131.9l13.8 10.3c1.5 1.1 2.4 3.1 2 5.3l-13.8-10.2c0.3-2.3-0.5-4.3-2-5.4z"/>
						</g>
						<g id="&lt;Group&gt;">
							<path id="&lt;Path&gt;" class="s2" d="m498.3 479.5l13.8 10.2h-436l-13.8-10.2z"/>
						</g>
						<g id="&lt;Group&gt;">
							<path id="&lt;Path&gt;" class="s2" d="m553 137.3l13.8 10.2-47.8 335.9-13.8-10.2z"/>
						</g>
						<g id="&lt;Group&gt;">
							<path id="&lt;Path&gt;" class="s2" d="m548 131c3.3 0 5.5 2.8 5 6.3l-47.8 335.9c-0.5 3.5-3.6 6.3-6.9 6.3h-436c-3.3 0-5.6-2.8-5.1-6.3l47.9-335.9c0.5-3.5 3.6-6.3 6.8-6.3z"/>
						</g>
						<g id="&lt;Group&gt;">
							<path id="&lt;Path&gt;" class="s2" d="m505.2 473.2l13.8 10.2c-0.5 3.5-3.6 6.3-6.9 6.3l-13.8-10.2c3.3 0 6.4-2.8 6.9-6.3z"/>
						</g>
					</g>
				</g>
				<g id="&lt;Group&gt;">
					<path id="&lt;Path&gt;" class="s3" d="m547.4 137.4l-47.9 335.9h-436l47.8-335.9z"/>
				</g>
			</g>
		</g>
	</g>
</svg>