<svg version="1.2" xmlns="http://www.w3.org/2000/svg" viewBox="0 0 700 600" width="700" height="600">
	<title>LightState_46-ai</title>
	<style>
		.s0 { fill: #e0e7ff } 
		.s1 { fill: #062841 } 
		.s2 { fill: #062841 } 
		.s3 { fill: current } 
	</style>
	<g id="_Artboards_">
	</g>
	<g id="&lt;Layer&gt;">
		<g id="&lt;Group&gt;">
			<g id="&lt;Group&gt;">
				<g id="&lt;Group&gt;">
					<g id="&lt;Group&gt;">
						<g id="&lt;Group&gt;">
							<path id="&lt;Path&gt;" class="s0" d="m96.9 502.1l-26.3-19.5c2.1 1.6 4.8 2.5 7.7 2.5l26.4 19.5c-2.9 0-5.6-0.9-7.8-2.5z"/>
						</g>
						<g id="&lt;Group&gt;">
							<path id="&lt;Path&gt;" class="s0" d="m568.4 69l26.4 19.5c3.6 2.7 5.6 7.3 5.2 12.7-0.3 3.1-0.4 5.7-0.2 7.9l-26.3-19.6c-0.2-2.1-0.2-4.7 0.1-7.9 0.5-5.3-1.6-9.9-5.2-12.6z"/>
						</g>
						<g id="&lt;Group&gt;">
							<path id="&lt;Path&gt;" class="s0" d="m600.7 191.8l-26.3-19.5q-0.5-0.4-0.9-0.8c-0.6-0.6-1.6-2.3-2.4-6.5-1.5-9.1 0.3-19.5 5.8-29.7 3.2-6 8.6-15.9 5.7-26.7-1.4-5-4.1-8.2-9.1-19.1l26.3 19.6c5.1 10.9 7.8 14.1 9.1 19 3 10.8-2.4 20.8-5.6 26.7-5.5 10.2-7.3 20.6-5.8 29.7 0.7 4.3 1.8 5.9 2.4 6.6q0.3 0.3 0.8 0.7z"/>
						</g>
						<g id="&lt;Group&gt;">
							<path id="&lt;Path&gt;" class="s0" d="m588.9 180.9l26.4 19.5c9 6.7 16.5 16.2 22.4 28.4 4 8 7.3 17.4 10.1 28.4 0.9 3.4 1.9 7.2 2.9 8.2q0.1 0.1 0.4 0.3l-26.4-19.5q-0.3-0.2-0.4-0.4c-1-0.9-1.9-4.7-2.8-8.1-2.9-11.1-6.2-20.4-10.1-28.5-6-12.1-13.5-21.6-22.5-28.3z"/>
						</g>
						<g id="&lt;Group&gt;">
							<path id="&lt;Path&gt;" class="s0" d="m450.9 485.1l26.4 19.5h-372.6l-26.4-19.5z"/>
						</g>
						<g id="&lt;Group&gt;">
							<path id="&lt;Path&gt;" class="s0" d="m495.8 530.6l-26.3-19.5c2.1 1.6 4.8 2.5 7.7 2.5q1.7 0 3.4-0.4c5.6-1.3 10.5-5.6 12.8-11.3 2.8-6.5 5.7-13 9.1-20.3 0.2-0.5 0.6-1.5 1-2.1l26.3 19.5c-0.3 0.7-0.7 1.6-1 2.1-3.3 7.3-6.3 13.8-9 20.4-2.3 5.6-7.2 9.9-12.8 11.2q-1.8 0.4-3.4 0.4c-2.9 0-5.6-0.9-7.8-2.5z"/>
						</g>
						<g id="&lt;Group&gt;">
							<path id="&lt;Path&gt;" class="s0" d="m629.9 249.7l26.4 19.5q0.8 0.7 1.7 1.4c5.9 5 12.6 14.7 11.4 32.7-0.6 8.7-2.8 18.5-7.2 30.6-2 5.7-6.5 10-11.7 11.8l-26.3-19.6c5.2-1.7 9.7-6.1 11.7-11.7 4.3-12.2 6.6-21.9 7.1-30.7 1.2-17.9-5.5-27.6-11.3-32.6q-0.9-0.8-1.8-1.4z"/>
						</g>
						<g id="&lt;Group&gt;">
							<path id="&lt;Path&gt;" class="s0" d="m547.1 377.1l26.3 19.5q2.5 2.4 4.2 5.8c5.3 10.2 4.9 27-1 38.9-2.9 5.9-6.6 11-9.8 15.4-2.9 4.1-5.7 7.9-6.9 11.2-0.2 0.6-0.5 1.5-0.8 2.4-1.2 3.9-3 9.8-7.4 15.3-6 7.4-13.6 10.2-18.6 12.1-1 0.4-2.4 0.9-3.3 1.3l-26.3-19.5c0.9-0.4 2.3-1 3.3-1.3 5-1.9 12.5-4.7 18.5-12.1 4.5-5.5 6.3-11.4 7.4-15.3 0.3-1 0.6-1.8 0.8-2.5 1.2-3.2 4-7.1 7-11.2 3.2-4.4 6.8-9.4 9.7-15.3 5.9-12 6.3-28.7 1-39q-1.7-3.3-4.1-5.7z"/>
						</g>
						<g id="&lt;Group&gt;">
							<path id="&lt;Path&gt;" class="s0" d="m624.2 326.1l26.3 19.6c-0.5 1.2-1.1 2.6-1.6 3.8-2.9 6.7-6.5 15.1-13.9 21.6-6 5.1-12.2 7.1-16.8 8.5-13.9 4.4-27.8 9.6-41.3 15.5-0.8 0.3-2.1 0.9-3.5 1.5l-26.3-19.5c1.3-0.7 2.6-1.2 3.4-1.6 13.6-5.9 27.5-11.1 41.3-15.4 4.6-1.5 10.9-3.4 16.8-8.6 7.4-6.4 11-14.8 13.9-21.6 0.5-1.1 1.1-2.6 1.7-3.8z"/>
						</g>
						<g id="&lt;Group&gt;">
							<path id="&lt;Path&gt;" class="s0" d="m560.6 66.5c8.1 0 13.8 6.6 13 15.1-0.3 3.2-0.3 5.8-0.1 7.9 5 10.9 7.7 14.1 9.1 19.1 2.9 10.8-2.5 20.7-5.7 26.7-5.5 10.2-7.3 20.6-5.8 29.7 0.8 4.2 1.8 5.9 2.4 6.5 1.1 1.1 3.3 2.3 5.7 3.5 1.2 0.6 2.4 1.3 3.7 2 11.7 6.6 21.3 17.5 28.5 32.2 3.9 8.1 7.2 17.4 10.1 28.5 0.9 3.4 1.8 7.2 2.8 8.1 0.3 0.4 1.5 1.1 2.4 1.7 1.4 0.9 3.2 2.1 5 3.6 5.8 5 12.5 14.7 11.3 32.6-0.5 8.8-2.8 18.5-7.1 30.7-2 5.6-6.5 10-11.7 11.7-0.6 1.2-1.2 2.7-1.7 3.8-2.9 6.8-6.5 15.2-13.9 21.6-5.9 5.2-12.2 7.1-16.8 8.6-13.8 4.3-27.7 9.5-41.3 15.4-0.8 0.4-2.1 0.9-3.4 1.6q2.4 2.4 4.1 5.7c5.3 10.3 4.9 27-1 39-2.9 5.9-6.5 10.9-9.7 15.3-3 4.1-5.8 8-7 11.2-0.2 0.7-0.5 1.5-0.8 2.5-1.1 3.9-2.9 9.8-7.4 15.3-6 7.4-13.5 10.2-18.5 12.1-1 0.3-2.4 0.9-3.3 1.3-0.4 0.6-0.8 1.6-1 2.1-3.4 7.3-6.3 13.8-9.1 20.3-2.3 5.7-7.2 10-12.8 11.3q-1.7 0.4-3.4 0.4c-4.3 0-8.2-2-10.6-5.5-1.9-1.6-2.9-2.4-4.1-3.5-4.3-3.9-6.1-8.8-7.4-12.4q-0.4-0.9-0.7-1.7c-0.7-1.9-1.9-3.7-3.5-5.4h-372.6c-5.5 0-10.1-3.2-12.1-8.3-0.5-1.5-2.7-7.4-3.3-8.8-2.2-5.9-5-13.3-5.3-22-0.4-10.2 2.6-19.6 5.2-27.8 1.6-5 3.1-9.7 3.6-13.6 0.8-8.3-2.4-16.6-6.2-26.2-3.3-8.3-6.9-17.7-8.1-28.4-0.9-8.5-0.2-16.6 0.5-24.4 0.4-3.6 0.7-6.9 0.8-10.1q0-1.2 0.1-2.2c-0.1-4.2-0.1-5-0.1-5.8-0.3-4.3-0.3-5-0.4-5.6-0.5-4.5-0.6-5.1-0.6-5.6-0.2-1.1-0.3-1.9-0.5-2.7-0.7-4.1-0.8-4.9-1-5.7-0.2-1.1-0.4-2-0.5-2.8-0.3-1-0.4-1.8-0.6-2.7-0.4-1.5-0.6-2.2-0.7-2.9-0.3-1.1-0.5-1.9-0.7-2.6-0.3-1.5-0.6-2.3-0.8-3.1-0.3-1.1-0.5-2-0.8-3.1-0.9-3.2-1.7-5.9-1.7-6q-0.3-1.3-0.7-2.5c-0.6-2-1.1-3.9-1.7-5.7-0.3-1.2-1-3.6-1-3.6q-0.4-1.2-0.7-2.3-0.5-1.8-1-3.5c-1.9-6.3-3.2-11.2-4.3-15.8q-0.4-1.4-0.7-2.9c-0.6-2.6-0.9-4.1-1.2-5.6-0.4-1.9-0.6-2.7-0.7-3.5-0.3-1.7-0.4-2.3-0.5-2.9q-0.3-1.3-0.5-2.8c-0.3-2-0.6-4-0.8-5.9q-0.1-1-0.2-1.9-0.1-0.9-0.2-2 0-0.9-0.1-1.7c-0.1-1.8-0.2-2.5-0.2-3.2-0.1-2.2-0.2-4.3-0.2-6.4 0-1.9 0.1-2.8 0.1-3.5q0-1.2 0.1-2.4c0-1 0.1-1.9 0.1-2.7 0.1-1 0.2-1.9 0.3-2.6 0-0.9 0.1-1.7 0.2-2.7 0.2-1.4 0.4-2.9 0.7-4.5q0.3-1.8 0.6-3.6 0.2-0.9 0.4-1.8c0.2-1 0.4-1.8 0.6-2.8 1.3-5.4 2.9-10.5 4.5-15.4 1.5-4.5 2.8-8.7 3.8-12.7 1.3-5.9 2.1-12.1 2.8-18.7 0.2-1.9 0.4-3.9 0.7-5.8 1.1-9.5 2.8-19.5 5.1-31.6 1.7-8.5 9.3-15.2 17.3-15.2z"/>
						</g>
					</g>
				</g>
				<g id="&lt;Group&gt;">
					<g id="&lt;Group&gt;">
						<g id="&lt;Group&gt;">
							<path id="&lt;Path&gt;" class="s1" d="m101.9 495.3l-26.3-19.5c1.1 0.8 2.4 1.2 3.9 1.2l26.3 19.6c-1.4 0-2.8-0.5-3.9-1.3z"/>
						</g>
						<g id="&lt;Group&gt;">
							<path id="&lt;Path&gt;" class="s1" d="m563.4 75.8l26.3 19.5c1.8 1.3 2.9 3.6 2.6 6.3-0.3 3.6-0.3 6.7-0.1 9.3l-26.4-19.6c-0.2-2.6-0.1-5.6 0.2-9.2 0.2-2.7-0.8-5-2.6-6.3z"/>
						</g>
						<g id="&lt;Group&gt;">
							<path id="&lt;Path&gt;" class="s1" d="m595.7 198.6l-26.3-19.6q-1-0.7-1.7-1.4c-2-2.1-3.3-5.4-4.1-10.1-1.9-10.9 0.3-23.3 6.8-35.4 2.9-5.3 6.9-12.7 4.8-20.3-1-3.5-2.9-5.8-4.5-7.7q-0.6-0.7-1.1-1.3c-0.3-0.5-0.7-1-3.8-11.5l26.4 19.6c3.1 10.4 3.4 10.9 3.8 11.4q0.5 0.6 1.1 1.3c1.5 1.9 3.5 4.3 4.4 7.7 2.1 7.7-1.9 15-4.8 20.4-6.4 12-8.6 24.4-6.7 35.4 0.7 4.6 2.1 7.9 4 10q0.8 0.8 1.7 1.5z"/>
						</g>
						<g id="&lt;Group&gt;">
							<path id="&lt;Path&gt;" class="s1" d="m583.9 187.6l26.3 19.6c8.2 6.1 15.1 14.8 20.6 26 3.7 7.7 6.9 16.6 9.6 27.2 1.3 4.9 2.3 8.9 4.5 11.1q0.5 0.5 1.2 1.1l-26.3-19.6q-0.7-0.5-1.3-1c-2.1-2.3-3.2-6.3-4.4-11.2-2.8-10.6-5.9-19.5-9.7-27.1-5.4-11.3-12.3-20-20.5-26.1z"/>
						</g>
						<g id="&lt;Group&gt;">
							<path id="&lt;Path&gt;" class="s1" d="m454.8 477l26.3 19.6h-375.3l-26.3-19.6z"/>
						</g>
						<g id="&lt;Group&gt;">
							<path id="&lt;Path&gt;" class="s1" d="m624.9 256.5l26.3 19.5q0.8 0.5 1.5 1.2c6.8 5.8 9.8 14.8 9.1 26.7-0.6 7.9-2.7 16.9-6.7 28.3-1.3 3.7-4.8 6.3-8.3 6.3l-26.4-19.6c3.6 0 7-2.6 8.3-6.3 4.1-11.3 6.2-20.3 6.7-28.2 0.8-12-2.3-21-9.1-26.8q-0.7-0.6-1.4-1.1z"/>
						</g>
						<g id="&lt;Group&gt;">
							<path id="&lt;Path&gt;" class="s1" d="m620.4 318.9l26.4 19.6c-1.6 1-3.7 5.9-4.8 8.6-2.7 6.2-5.7 13.2-11.4 18.1-4.5 3.9-9.5 5.5-13.5 6.8-14.2 4.4-28.4 9.7-42.2 15.7-4.8 2.1-9.3 4.2-11.8 7.5-0.9 1.1-1.5 2.8-1.4 4.1l-26.4-19.5c-0.1-1.3 0.5-3 1.4-4.2 2.5-3.2 7-5.4 11.8-7.4 13.8-6 28-11.3 42.2-15.8 4-1.3 9.1-2.8 13.5-6.7 5.8-5 8.7-12 11.4-18.1 1.1-2.7 3.3-7.7 4.8-8.7z"/>
						</g>
						<g id="&lt;Group&gt;">
							<path id="&lt;Path&gt;" class="s1" d="m539.8 381.9l26.4 19.6c1.8 1.3 3.3 3.2 4.5 5.5 4.2 8.1 3.9 22-0.8 31.5-2.6 5.2-5.8 9.7-8.9 14-3.4 4.6-6.6 9-8.2 13.5-0.4 0.9-0.7 1.9-1 3-1.1 3.5-2.4 8-5.7 12-4.3 5.4-10 7.5-14.5 9.2-2.8 1-5.5 2-6.8 3.4-1 1-1.9 3.1-2.8 5-3.4 7.3-6.4 13.9-9.2 20.7-1.1 2.8-3.6 4.9-6.4 5.6q-0.8 0.2-1.7 0.2c-1.4 0-2.8-0.4-3.9-1.3l-26.3-19.5c1.1 0.8 2.4 1.2 3.9 1.2q0.8 0 1.6-0.2c2.8-0.6 5.3-2.8 6.5-5.6 2.7-6.7 5.8-13.3 9.1-20.6 0.9-1.9 1.9-4 2.9-5.1 1.2-1.3 3.9-2.3 6.7-3.3 4.5-1.8 10.2-3.9 14.6-9.3 3.2-4 4.6-8.4 5.7-12 0.3-1 0.6-2 0.9-2.9 1.6-4.5 4.8-8.9 8.2-13.6 3.1-4.3 6.4-8.7 8.9-13.9 4.7-9.6 5.1-23.4 0.9-31.6-1.2-2.3-2.7-4.1-4.6-5.5z"/>
						</g>
						<g id="&lt;Group&gt;">
							<path id="&lt;Path&gt;" class="s1" d="m559.5 74.5c4 0 6.9 3.3 6.5 7.6-0.3 3.6-0.4 6.6-0.2 9.2 3.1 10.5 3.5 11 3.8 11.5q0.5 0.6 1.1 1.3c1.6 1.9 3.5 4.2 4.5 7.7 2.1 7.6-1.9 15-4.8 20.3-6.5 12.1-8.7 24.5-6.8 35.4 0.8 4.7 2.1 8 4.1 10.1 1.7 1.8 4.4 3.2 7.3 4.7q1.8 0.9 3.6 1.9c10.5 6 19.2 15.9 25.8 29.5 3.8 7.6 6.9 16.5 9.7 27.1 1.2 4.9 2.3 8.9 4.4 11.2 0.9 0.8 2.1 1.6 3.5 2.5 1.3 0.9 2.9 1.9 4.3 3.1 6.8 5.8 9.9 14.8 9.1 26.8-0.5 7.9-2.6 16.9-6.7 28.2-1.3 3.7-4.7 6.3-8.3 6.3-1.5 1-3.7 6-4.8 8.7-2.7 6.1-5.6 13.1-11.4 18.1-4.4 3.9-9.5 5.4-13.5 6.7-14.2 4.5-28.4 9.8-42.2 15.8-4.8 2-9.3 4.2-11.8 7.4-0.9 1.2-1.5 2.9-1.4 4.2 3.8 1 7 3.6 9.1 7.6 4.2 8.2 3.8 22-0.9 31.6-2.5 5.2-5.8 9.6-8.9 13.9-3.4 4.7-6.6 9.1-8.2 13.6-0.3 0.9-0.6 1.9-0.9 2.9-1.1 3.6-2.5 8-5.7 12-4.4 5.4-10.1 7.5-14.6 9.3-2.8 1-5.5 2-6.7 3.3-1 1.1-2 3.2-2.9 5.1-3.3 7.3-6.4 13.9-9.1 20.6-1.2 2.8-3.7 5-6.5 5.6q-0.8 0.2-1.6 0.2c-2.2 0-4.1-0.9-5.4-2.7-0.6-1-1.2-1.4-2.4-2.3-0.7-0.6-1.6-1.3-2.6-2.2-3.1-2.9-4.6-6.8-5.7-9.9q-0.4-1-0.7-1.9c-1.4-3.5-3.7-6.6-6.8-9.5h-375.3c-2.8 0-5.1-1.5-6.1-4.1-0.6-1.5-2.8-7.3-3.3-8.8-2.2-5.7-4.6-12.1-4.9-19.6-0.3-8.7 2.3-16.9 4.9-24.8 1.7-5.5 3.4-10.6 3.9-15.4 1.1-10.2-2.7-19.8-6.6-29.9-3.3-8.2-6.6-16.8-7.7-26.4-0.8-7.7-0.1-15.4 0.6-22.9 0.3-3.6 0.6-7.1 0.7-10.5q0.1-1.3 0.1-2.5c0-2 0-2.6 0-3.3q0-1.6-0.1-2.9c-0.2-4.6-0.3-5.3-0.4-6q-0.1-1-0.2-1.9c-0.3-2.8-0.4-3.4-0.5-4.1-0.1-1.1-0.3-2-0.4-2.8-0.7-4.3-0.9-5.1-1.1-5.9q-0.3-1.6-0.6-3-0.3-1.4-0.6-2.7c-0.3-1.5-0.5-2.4-0.7-3.1-0.2-1-0.4-1.9-0.7-2.7-0.3-1.4-0.5-2.3-0.8-3.2-0.2-1-0.5-1.9-0.8-3-0.9-3.3-1.7-6-1.7-6q-0.4-1.4-0.8-2.7-0.8-2.9-1.6-5.7-0.6-1.8-1.1-3.5-0.3-1.2-0.7-2.3-0.5-1.8-1-3.6c-1.8-6.1-3-10.9-4.1-15.4q-0.4-1.4-0.7-2.9c-0.6-2.5-0.9-3.9-1.2-5.4-0.4-1.8-0.5-2.6-0.7-3.4-0.3-1.6-0.4-2.2-0.5-2.8-0.1-0.8-0.3-1.7-0.4-2.6q-0.5-2.9-0.8-5.7-0.1-0.8-0.2-1.7-0.1-0.8-0.1-1.8c-0.3-3.4-0.3-4-0.4-4.7-0.1-2.1-0.1-4.1-0.1-6.1 0-1.6 0-2.5 0-3.2q0.1-1.1 0.1-2.3c0.1-0.8 0.1-1.6 0.2-2.4q0.1-1.3 0.2-2.4c0.1-0.9 0.1-1.6 0.2-2.5 0.2-1.3 0.4-2.7 0.6-4.2q0.3-1.6 0.6-3.3c0.5-2.5 0.7-3.3 0.9-4.2 1.2-5 2.8-10 4.3-14.7 1.5-4.7 3-9.1 4-13.5 1.5-6.3 2.2-12.8 3-19.7 0.2-1.8 0.4-3.8 0.7-5.7 1.1-9.2 2.7-19.1 5-31 0.9-4.2 4.7-7.6 8.7-7.6z"/>
						</g>
					</g>
				</g>
				<g id="&lt;Group&gt;">
					<g id="&lt;Group&gt;">
						<g id="&lt;Group&gt;">
							<path id="&lt;Path&gt;" class="s2" d="m93.3 489.1l-17.5-13c1 0.8 2.4 1.3 3.8 1.3l17.6 13c-1.5 0-2.8-0.5-3.9-1.3z"/>
						</g>
						<g id="&lt;Group&gt;">
							<path id="&lt;Path&gt;" class="s2" d="m563.5 76.1l17.6 13c1.8 1.3 2.9 3.6 2.6 6.3-0.3 3.6-0.3 6.7-0.1 9.3l-17.6-13c-0.2-2.7-0.2-5.7 0.2-9.3 0.2-2.7-0.8-5-2.7-6.3z"/>
						</g>
						<g id="&lt;Group&gt;">
							<path id="&lt;Path&gt;" class="s2" d="m587.1 192.4l-17.6-13.1q-0.9-0.7-1.6-1.4c-2-2.1-3.3-5.4-4.1-10.1-1.9-10.9 0.3-23.3 6.7-35.4 2.9-5.3 6.9-12.7 4.9-20.3-1-3.5-3-5.8-4.5-7.7q-0.6-0.7-1.1-1.3c-0.4-0.5-0.7-1-3.8-11.4l17.6 13c3.1 10.4 3.4 10.9 3.8 11.4q0.5 0.6 1 1.3c1.6 1.9 3.6 4.2 4.5 7.7 2.1 7.7-1.9 15-4.8 20.4-6.4 12-8.6 24.4-6.8 35.3 0.8 4.7 2.2 8 4.1 10.1q0.8 0.8 1.7 1.5z"/>
						</g>
						<g id="&lt;Group&gt;">
							<path id="&lt;Path&gt;" class="s2" d="m584.1 188l17.5 13c8.2 6 15.1 14.8 20.6 26 3.7 7.7 6.9 16.6 9.6 27.2 1.3 4.9 2.3 8.9 4.5 11.1q0.5 0.5 1.2 1.1l-17.5-13.1q-0.8-0.5-1.3-1c-2.2-2.2-3.2-6.3-4.5-11.2-2.7-10.6-5.9-19.5-9.6-27.1-5.5-11.3-12.4-20-20.5-26z"/>
						</g>
						<g id="&lt;Group&gt;">
							<path id="&lt;Path&gt;" class="s2" d="m454.9 477.4l17.6 13h-375.3l-17.6-13z"/>
						</g>
						<g id="&lt;Group&gt;">
							<path id="&lt;Path&gt;" class="s2" d="m625.1 256.8l17.5 13q0.8 0.5 1.5 1.1c6.8 5.9 9.8 14.9 9 26.8-0.5 7.9-2.6 16.9-6.6 28.3-1.3 3.6-4.8 6.2-8.3 6.2l-17.6-13c3.6 0 7-2.6 8.3-6.2 4-11.4 6.2-20.4 6.7-28.3 0.8-12-2.3-21-9.1-26.8q-0.7-0.6-1.4-1.1z"/>
						</g>
						<g id="&lt;Group&gt;">
							<path id="&lt;Path&gt;" class="s2" d="m620.6 319.2l17.6 13c-1.6 1.1-3.7 6-4.9 8.7-2.6 6.2-5.6 13.2-11.3 18.1-4.5 3.9-9.5 5.5-13.6 6.7-14.1 4.5-28.3 9.8-42.1 15.8-4.8 2.1-9.3 4.2-11.8 7.5-0.9 1.1-1.5 2.8-1.4 4.1l-17.6-13c-0.1-1.3 0.5-3 1.4-4.2 2.5-3.2 7-5.3 11.8-7.4 13.8-6 28-11.3 42.2-15.8 4-1.3 9.1-2.8 13.5-6.7 5.7-5 8.7-12 11.4-18.1 1.1-2.7 3.3-7.7 4.8-8.7z"/>
						</g>
						<g id="&lt;Group&gt;">
							<path id="&lt;Path&gt;" class="s2" d="m540 382.2l17.6 13.1c1.8 1.3 3.3 3.1 4.5 5.5 4.2 8.1 3.9 22-0.8 31.5-2.6 5.2-5.8 9.7-8.9 14-3.4 4.6-6.6 9-8.2 13.5-0.4 0.9-0.7 1.9-1 3-1.1 3.5-2.4 8-5.7 12-4.3 5.4-10 7.5-14.6 9.2-2.8 1-5.4 2-6.7 3.4-1 1-1.9 3.1-2.8 5-3.4 7.3-6.4 13.9-9.2 20.7-1.1 2.8-3.6 4.9-6.4 5.6q-0.9 0.2-1.7 0.2c-1.4 0-2.8-0.5-3.9-1.3l-17.5-13c1 0.8 2.4 1.2 3.8 1.2q0.9 0 1.7-0.1c2.8-0.7 5.3-2.8 6.4-5.7 2.8-6.7 5.8-13.3 9.2-20.6 0.9-1.9 1.8-4 2.8-5.1 1.3-1.3 4-2.3 6.8-3.3 4.5-1.8 10.2-3.9 14.6-9.2 3.2-4.1 4.6-8.5 5.6-12.1 0.4-1 0.7-2 1-2.9 1.6-4.5 4.8-8.9 8.2-13.6 3.1-4.3 6.3-8.7 8.9-13.9 4.7-9.6 5.1-23.4 0.9-31.6-1.2-2.3-2.8-4.1-4.6-5.5z"/>
						</g>
						<g id="&lt;Group&gt;">
							<path id="&lt;Path&gt;" class="s2" d="m559.7 74.8c4 0 6.8 3.3 6.5 7.6-0.4 3.6-0.4 6.6-0.2 9.3 3.1 10.4 3.4 10.9 3.8 11.4q0.5 0.6 1.1 1.3c1.5 1.9 3.5 4.2 4.5 7.7 2 7.6-2 15-4.9 20.3-6.4 12.1-8.6 24.5-6.7 35.4 0.8 4.7 2.1 8 4.1 10.1 1.7 1.8 4.4 3.2 7.3 4.7q1.7 0.9 3.5 1.9c10.6 6 19.3 15.9 25.9 29.5 3.7 7.6 6.9 16.5 9.6 27.1 1.3 4.9 2.3 9 4.5 11.2 0.8 0.8 2.1 1.7 3.5 2.5 1.3 0.9 2.8 1.9 4.3 3.1 6.8 5.8 9.9 14.8 9.1 26.8-0.5 7.9-2.7 16.9-6.7 28.3-1.3 3.6-4.7 6.2-8.3 6.2-1.5 1-3.7 6-4.8 8.7-2.7 6.1-5.7 13.1-11.4 18.1-4.4 3.9-9.5 5.4-13.5 6.7-14.2 4.5-28.4 9.8-42.2 15.8-4.8 2.1-9.3 4.2-11.8 7.4-0.9 1.2-1.5 2.9-1.4 4.2 3.8 1 7 3.6 9.1 7.6 4.2 8.2 3.8 22-0.9 31.6-2.6 5.2-5.8 9.6-8.9 13.9-3.4 4.7-6.6 9.1-8.2 13.6-0.3 0.9-0.6 1.9-1 2.9-1 3.6-2.4 8-5.6 12.1-4.4 5.3-10.1 7.4-14.6 9.2-2.8 1-5.5 2-6.8 3.3-1 1.1-1.9 3.2-2.8 5.1-3.4 7.3-6.4 13.9-9.2 20.6-1.1 2.9-3.6 5-6.4 5.7q-0.8 0.1-1.7 0.1c-2.1 0-4.1-0.9-5.3-2.7-0.6-1-1.2-1.4-2.4-2.3-0.8-0.6-1.6-1.3-2.6-2.2-3.2-2.9-4.6-6.8-5.7-9.9q-0.4-1-0.7-1.9c-1.4-3.4-3.7-6.6-6.9-9.4h-375.3c-2.7 0-5-1.6-6-4.2-0.6-1.5-2.8-7.3-3.3-8.8-2.2-5.6-4.6-12.1-4.9-19.6-0.3-8.7 2.3-16.9 4.8-24.8 1.8-5.4 3.4-10.6 4-15.4 1-10.2-2.7-19.7-6.7-29.9-3.2-8.2-6.6-16.8-7.6-26.4-0.9-7.7-0.2-15.4 0.5-22.9 0.4-3.6 0.7-7.1 0.8-10.5q0.1-1.3 0.1-2.4c0-2.1 0-2.7 0-3.4q0-1.6-0.1-2.9c-0.3-4.5-0.3-5.3-0.4-6q-0.1-1-0.2-1.9c-0.3-2.8-0.4-3.4-0.5-4.1-0.2-1.1-0.3-2-0.4-2.8-0.8-4.3-0.9-5.1-1.1-5.9-0.2-1.1-0.4-2.1-0.6-3q-0.3-1.4-0.6-2.7c-0.3-1.5-0.5-2.4-0.7-3.1-0.2-1-0.5-1.8-0.7-2.7-0.3-1.4-0.6-2.3-0.8-3.2-0.3-1-0.5-1.9-0.8-3-0.9-3.3-1.7-6-1.7-6q-0.4-1.4-0.8-2.7-0.8-2.9-1.6-5.7-0.6-1.7-1.1-3.5-0.3-1.2-0.7-2.3-0.5-1.8-1-3.6c-1.8-6.1-3.1-10.9-4.2-15.4q-0.3-1.4-0.7-2.9c-0.5-2.5-0.8-3.9-1.1-5.4-0.4-1.8-0.6-2.6-0.7-3.4-0.3-1.6-0.4-2.2-0.5-2.8-0.1-0.7-0.3-1.7-0.4-2.6q-0.5-2.9-0.8-5.7-0.1-0.8-0.2-1.7-0.1-0.8-0.2-1.8c-0.2-3.3-0.2-4-0.3-4.7-0.1-2.1-0.1-4.1-0.1-6.1 0-1.6 0-2.5 0-3.2q0-1.1 0.1-2.3c0-0.8 0.1-1.6 0.1-2.4q0.1-1.3 0.3-2.4c0-0.9 0.1-1.6 0.2-2.5 0.2-1.3 0.4-2.7 0.6-4.1q0.3-1.7 0.6-3.4c0.5-2.5 0.7-3.3 0.9-4.1 1.2-5.1 2.8-10.1 4.3-14.8 1.5-4.7 2.9-9.1 4-13.4 1.5-6.4 2.2-12.9 3-19.8 0.2-1.8 0.4-3.8 0.7-5.7 1.1-9.2 2.7-19 5-31 0.8-4.2 4.6-7.6 8.7-7.6z"/>
						</g>
					</g>
				</g>
				<g id="&lt;Group&gt;">
					<path id="&lt;Path&gt;" class="s3" d="m559 83c-0.3 3.7-0.4 7.3-0.2 10.7 1.2 6.9 1.4 7.5 1.6 8.1 2.6 5.6 3.1 6.3 3.7 7 1.6 2.2 3.6 4 4.4 6.7 1.3 5-2.1 10.5-4.8 15.5-6.6 12.4-9.2 26.7-7 39.5 0.9 5.1 2.5 10.1 5.8 13.6 3.4 3.6 8.1 5.4 12.4 7.8 10.4 5.9 17.8 15.5 23.3 26.7 3.9 8.1 6.8 17 9.1 25.9 1.3 5.1 2.6 10.5 6.1 14.1 2.4 2.4 5.6 3.8 8.2 6 11.5 9.8 6.5 30.4 0.7 46.8-11.6 0-12.2 20.6-21.7 28.9-3.1 2.7-6.8 3.8-10.5 5-14.4 4.5-28.8 9.9-42.9 16-5.6 2.5-11.5 5.3-15.5 10.3-3.9 5.1-4.9 13.1-0.5 16.3 10.2 0 11.1 18.9 6.3 28.8-4.9 10-13.8 18.1-17.5 28.5-1.5 4.1-2.3 8.6-5.1 12.1-5.2 6.5-15 6-20.7 12-2.1 2.2-3.5 5-4.7 7.7-3.2 6.9-6.4 14-9.3 21-1.9-2.6-3.6-3.4-6-5.6-2.5-2.3-3.5-6-4.8-9.4-2.2-5.4-5.9-9.9-10.4-13.5h-377.7q-1.7-4.4-3.3-8.7c-2.1-5.5-4.2-11.1-4.4-17.3-0.5-12.9 7.3-25.9 8.7-39.1 2.2-21-12.1-37.6-14.3-58-1.1-10.4 0.9-21.4 1.4-32.2q0-1.3 0.1-2.7c0-2.2 0-2.9-0.1-3.6q0-1.5 0-3c-0.1-1.4-0.1-2.1-0.2-2.7-0.1-2.2-0.2-3-0.3-3.8q-0.1-1-0.2-2.1-0.1-0.9-0.2-1.9-0.1-1.2-0.3-2.4-0.2-1.5-0.5-2.9-0.1-1-0.3-1.9-0.1-0.8-0.3-1.6-0.2-1.4-0.5-2.7-0.3-1.5-0.6-3-0.3-1.4-0.6-2.8c-0.3-1.5-0.6-2.4-0.8-3.3q-0.3-1.4-0.7-2.8-0.4-1.7-0.8-3.3-0.4-1.5-0.8-3-0.4-1.3-0.8-2.7-0.5-1.7-0.9-3.3-0.4-1.4-0.8-2.8-1.4-4.6-2.7-9.2-0.9-2.9-1.7-5.8c-1.5-5-2.9-10.1-4.1-15.1q-0.4-1.5-0.7-3c-0.5-2.3-0.9-3.7-1.1-5.1-0.4-1.7-0.5-2.5-0.7-3.3-0.2-1-0.3-1.8-0.4-2.6q-0.3-1.2-0.4-2.5-0.5-2.7-0.8-5.4c-0.2-2.2-0.3-2.7-0.3-3.3q-0.1-1-0.2-2c-0.1-1-0.1-1.7-0.1-2.3q-0.2-3.1-0.2-6.1c0-1 0-1.8 0.1-2.7q0-1 0.1-2.1 0-1.1 0.1-2.2 0.1-1.1 0.2-2.2 0.1-1.2 0.2-2.2 0.2-2 0.5-3.9 0.3-1.6 0.6-3.1c0.5-2.3 0.6-3 0.8-3.7 2.2-9.5 6-18.8 8.3-28.3 2.1-8.7 2.8-17.6 3.9-26.4 1.2-10.1 3-20.2 4.9-30.4z"/>
				</g>
			</g>
		</g>
	</g>
</svg>