<svg version="1.2" xmlns="http://www.w3.org/2000/svg" viewBox="0 0 600 600" width="600" height="600">
	<title>LightState_42-ai</title>
	<style>
		.s0 { fill: #e0e7ff } 
		.s1 { fill: #062841 } 
		.s2 { fill: #062841 } 
		.s3 { fill: current } 
	</style>
	<g id="_Artboards_">
	</g>
	<g id="&lt;Layer&gt;">
		<g id="&lt;Group&gt;">
			<g id="&lt;Group&gt;">
				<g id="&lt;Group&gt;">
					<g id="&lt;Group&gt;">
						<g id="&lt;Group&gt;">
							<path id="&lt;Path&gt;" class="s0" d="m105.8 145.6l-23.4-17.4c3.2 2.4 6.8 4.2 10.6 5.4q2.3 0.7 4.9 0.8l23.4 17.4q-2.5-0.2-4.8-0.9c-3.8-1.1-7.5-2.9-10.7-5.3z"/>
						</g>
						<g id="&lt;Group&gt;">
							<path id="&lt;Path&gt;" class="s0" d="m392.2 30.3l23.4 17.4q0.2 0.1 0.3 0.2c5.7 4.5 9.9 10 12.4 16.4q0.5 1.1 0.9 2.1c0.2 0.7 0.5 1.6 0.8 2.1l-23.5-17.4c-0.2-0.5-0.5-1.4-0.8-2.1q-0.4-1-0.8-2.1c-2.6-6.3-6.7-11.8-12.5-16.4q-0.1-0.1-0.2-0.2z"/>
						</g>
						<g id="&lt;Group&gt;">
							<path id="&lt;Path&gt;" class="s0" d="m99.3 514.1l-23.4-17.4c1.9 1.5 4.3 2.2 6.9 2.2l23.4 17.4c-2.6 0-4.9-0.7-6.9-2.2z"/>
						</g>
						<g id="&lt;Group&gt;">
							<path id="&lt;Path&gt;" class="s0" d="m406.5 51.1l23.5 17.4c2.4 1.9 4.4 3.5 6.4 6.4 1.8 2.6 2.5 6 2 9.4-0.2 1.3-0.5 2.7-1 3.9-5.8 14.1-8.5 24.6-8.7 34.1-0.6 23.2 14.2 42.3 26.7 54.3q1 1 2.1 2c9.8 9.3 22.1 21 22.2 39.8 0 2.2-0.1 4.3-0.2 6.5-0.1 1-0.2 2.4-0.2 3.8l-23.5-17.4c0.1-1.3 0.1-2.7 0.2-3.8 0.1-2.1 0.2-4.3 0.2-6.5 0-18.8-12.3-30.5-22.2-39.8q-1-1-2.1-2c-12.5-12-27.2-31.1-26.7-54.3 0.3-9.5 2.9-20 8.7-34.1q0.8-1.9 1.1-3.9c0.5-3.4-0.3-6.8-2-9.4-2.1-2.9-4.1-4.5-6.5-6.4z"/>
						</g>
						<g id="&lt;Group&gt;">
							<path id="&lt;Path&gt;" class="s0" d="m487.7 216.8l23.5 17.4q0.4 0.3 0.8 0.6c1.5 1.2 6 4.9 7.2 11.6 1.3 7.3-1.9 13.7-3.4 16.8-7.4 14.8-14.1 28.3-20.8 41.8-1.6 3.1-3.1 6.1-3.5 8.3-0.8 3.8 1.3 8.9 5.6 13.6 2.3 2.5 5 4.8 7.9 6.9l-23.5-17.3c-2.9-2.2-5.6-4.5-7.9-7-4.2-4.6-6.3-9.7-5.6-13.6 0.5-2.2 1.9-5.1 3.5-8.3 6.7-13.5 13.5-27 20.8-41.8 1.6-3.1 4.8-9.5 3.5-16.7-1.2-6.8-5.8-10.5-7.3-11.7q-0.4-0.3-0.8-0.6z"/>
						</g>
						<g id="&lt;Group&gt;">
							<path id="&lt;Path&gt;" class="s0" d="m434.2 498.9l23.4 17.4h-351.4l-23.4-17.4z"/>
						</g>
						<g id="&lt;Group&gt;">
							<path id="&lt;Path&gt;" class="s0" d="m433.3 567.9l-23.5-17.4c1.9 1.4 4.3 2.2 6.9 2.2l23.5 17.4c-2.6 0-5-0.8-6.9-2.2z"/>
						</g>
						<g id="&lt;Group&gt;">
							<path id="&lt;Path&gt;" class="s0" d="m504.2 331.6l23.4 17.4c15.2 11.2 23.5 24.5 24.8 39.6 0.8 8.8-0.9 17.2-2.4 24.7-0.3 1.7-0.7 3.3-0.9 4.9-0.9 4.9-1.9 11.9 0.2 15.7 0.2 0.4 0.5 0.8 0.9 1.1l-23.4-17.4c-0.4-0.3-0.8-0.7-1-1.1-2.1-3.8-1.1-10.8-0.2-15.7 0.3-1.6 0.6-3.2 0.9-4.9 1.5-7.5 3.2-15.9 2.5-24.7-1.3-15-9.7-28.4-24.8-39.6z"/>
						</g>
						<g id="&lt;Group&gt;">
							<path id="&lt;Path&gt;" class="s0" d="m474.7 552.7l23.5 17.4h-58l-23.5-17.4z"/>
						</g>
						<g id="&lt;Group&gt;">
							<path id="&lt;Path&gt;" class="s0" d="m509.5 494.4l23.5 17.4c-1.2 3.4-1.4 7.3-2.9 11.7-3.8 10.6-12.7 16-18.6 19.5l-23.5-17.3c5.9-3.6 14.8-9 18.6-19.6 1.6-4.4 1.8-8.3 2.9-11.7z"/>
						</g>
						<g id="&lt;Group&gt;">
							<path id="&lt;Path&gt;" class="s0" d="m539.8 421.5l23.5 17.4c2.1 1.6 3.8 3.8 4.8 6.5 1.2 3.2 1.4 6.9 0.6 11.3-1.3 7.6-3.5 15-5.7 22.2-1 3.3-1.9 6.5-2.8 9.6-1 3.8-2.9 10.9-9 16.5-7.3 6.8-15.5 6.8-18.2 6.8l-23.5-17.4c2.7 0 10.9 0 18.2-6.8 6.2-5.6 8.1-12.7 9.1-16.5 0.8-3.1 1.8-6.3 2.8-9.6 2.1-7.2 4.3-14.6 5.6-22.2 0.8-4.4 0.6-8.1-0.6-11.3-1-2.7-2.6-4.9-4.8-6.5z"/>
						</g>
						<g id="&lt;Group&gt;">
							<path id="&lt;Path&gt;" class="s0" d="m488 525.7l23.5 17.3c0.3 1.9 1.1 3.7 1.6 5.8q0.5 1.6 0.7 3.3c0.5 4.3-1.1 8.9-4.1 12.4-3.1 3.5-7.3 5.6-11.5 5.6l-23.5-17.4c4.2 0 8.5-2.1 11.5-5.6 3.1-3.5 4.6-8.1 4.1-12.4q-0.2-1.7-0.6-3.3c-0.6-2.1-1.4-3.9-1.7-5.7z"/>
						</g>
						<g id="&lt;Group&gt;">
							<path id="&lt;Path&gt;" class="s0" d="m385.3 28.1c2.6 0 5.1 0.8 7.1 2.4 5.8 4.6 9.9 10.1 12.5 16.4q0.4 1.1 0.8 2.1c0.3 0.7 0.6 1.6 0.8 2.1 2.4 1.9 4.4 3.5 6.5 6.4 1.7 2.6 2.5 6 2 9.4q-0.3 2-1.1 3.9c-5.8 14.1-8.4 24.6-8.7 34.1-0.5 23.2 14.2 42.3 26.7 54.3q1.1 1 2.1 2c9.9 9.3 22.2 21 22.2 39.8 0 2.2-0.1 4.4-0.2 6.5-0.1 1.1-0.1 2.5-0.2 3.8 3.5-0.9 7-1.3 10.4-1.3 8.3 0 16.2 2.6 22.3 7.4 1.5 1.2 6.1 4.9 7.3 11.7 1.3 7.2-1.9 13.6-3.5 16.7-7.3 14.8-14.1 28.3-20.8 41.8-1.6 3.2-3 6.1-3.5 8.3-0.7 3.9 1.4 9 5.6 13.6 5 5.5 11.7 9.7 18.7 14.2 3.5 2.2 7.1 4.5 10.6 7 16 11.4 24.7 25.1 26.1 40.5 0.7 8.8-1 17.2-2.5 24.7-0.3 1.7-0.6 3.3-0.9 4.9-0.9 4.9-1.9 11.9 0.2 15.7 0.5 0.8 1.4 1.5 2.2 1.7 0.4 0.1 1.1 0.1 1.8 0.2 1.7 0.1 4 0.3 6.4 1.2 4 1.5 6.9 4.4 8.4 8.4 1.2 3.2 1.4 6.9 0.6 11.3-1.3 7.6-3.5 15-5.6 22.2-1 3.3-2 6.5-2.8 9.6-1 3.8-2.9 10.9-9.1 16.5-7.3 6.8-15.5 6.8-18.2 6.8-1.1 3.4-1.3 7.3-2.9 11.7-3.8 10.6-12.7 16-18.6 19.6 0.3 1.8 1.1 3.6 1.7 5.7q0.4 1.6 0.6 3.3c0.5 4.3-1 8.9-4.1 12.4-3 3.5-7.3 5.6-11.5 5.6h-58c-4.4 0-8.2-2.3-10.2-6.1-1.9-3.8-1.9-8.7 0.3-13.1 4.4-8.9 11.3-15.4 16.1-19.4 1.5-1.3 3.2-2.6 4.8-3.9 2.1-1.8 5.5-4.5 7.4-6.3 0-1.6-0.4-3.6-0.9-5h-351.4c-3.8 0-7.1-1.6-9.2-4.4-2.2-2.9-2.9-6.8-2.1-10.7 3.6-18.4 7.1-37 10.4-55.4 7.2-41.2 13.4-82.8 18.3-123.7l0.3-2.4c2-16.6 4.1-33.7 9.7-51 1-3 2.1-5.9 3.1-8.8 1.9-5.1 3.7-10 4.7-14.5 1.2-5.9 0.9-10.8-0.9-13.5-0.7-1-1.9-2.2-3.2-3.5-2.8-2.8-6.3-6.2-8.5-11.3-1.4-3.4-2-6.7-2.5-9.3-0.2-1.4-0.5-3-0.8-3.6-0.4-0.9-2.4-2.6-3.9-3.8-4.1-3.6-9.8-8.4-11.3-17.2-2.2-12.9 5.7-24 11-31.4q-2.6-0.1-4.9-0.8c-5.1-1.6-9.9-4.4-13.8-8.1q-0.8-0.7-1.6-1.6c-0.6-0.6-1.1-1.2-1.6-1.7-0.4-0.5-0.8-1-1.2-1.5-0.6-0.8-1-1.3-1.3-1.8-0.4-0.5-0.7-1-1.1-1.5-1.2-2.1-1.7-2.8-2.1-3.5q-0.6-1.1-1.2-2.3c-0.7-1.4-1.3-2.7-1.9-4.1-1.2-2.6-1.6-3.7-2.2-5.1-1.3-3.2-1.6-4.2-2-5.1l-5-13.3q-6.6-17.4-13.2-34.7c-1.6-4.5-0.8-9.8 2.3-14.2 3-4.3 7.8-7 12.6-7z"/>
						</g>
					</g>
				</g>
				<g id="&lt;Group&gt;">
					<g id="&lt;Group&gt;">
						<g id="&lt;Group&gt;">
							<path id="&lt;Path&gt;" class="s1" d="m110.3 139.6l-23.4-17.4c2.7 2 5.7 3.5 8.9 4.5 1.5 0.4 3.2 0.7 5.1 0.7 1.6 0 3.1-0.2 4.5-0.4 1-0.1 2-0.2 3.1-0.2l23.5 17.4c-1.1 0-2.1 0.1-3.2 0.2-1.3 0.2-2.8 0.4-4.5 0.4-1.8 0-3.5-0.3-5.1-0.7-3.1-1-6.2-2.5-8.9-4.5z"/>
						</g>
						<g id="&lt;Group&gt;">
							<path id="&lt;Path&gt;" class="s1" d="m103.8 508.1l-23.5-17.4c1 0.7 2.2 1.1 3.5 1.1l23.5 17.4c-1.3 0-2.5-0.4-3.5-1.1z"/>
						</g>
						<g id="&lt;Group&gt;">
							<path id="&lt;Path&gt;" class="s1" d="m387.7 36.3l23.5 17.4q0 0.1 0.1 0.1c5 4 8.6 8.7 10.7 14q0.4 1 0.8 2c0.6 1.7 1.2 3.4 2 4 0.5 0.5 1 0.9 1.5 1.4 1.4 1 2.9 2.2 4.4 4.4 0.9 1.3 1.3 3 1 4.7q-0.1 1-0.5 2c-6.2 15-9 26.3-9.3 36.9-0.3 10.8 2.4 21.7 7.9 32.2 4.8 9.2 11.7 18.2 20.6 26.8q1.1 1 2.1 2c9.5 9 20.3 19.2 20.4 35.3 0 2-0.1 4-0.2 6.1-0.2 3.1-0.3 6.3-0.1 8.8 0.3 2.4 0.8 2.9 0.8 2.9l-23.4-17.4c0 0-0.6-0.5-0.8-2.9-0.3-2.5-0.1-5.7 0-8.8 0.1-2.1 0.2-4.1 0.2-6.1 0-16-10.8-26.3-20.3-35.3q-1.1-1-2.1-2c-8.9-8.6-15.9-17.6-20.7-26.8-5.5-10.5-8.1-21.4-7.9-32.2 0.3-10.5 3.2-21.9 9.3-36.9q0.4-1 0.5-2c0.3-1.7-0.1-3.4-1-4.7-1.5-2.2-3-3.4-4.3-4.4-0.6-0.4-1.1-0.8-1.6-1.3-0.8-0.7-1.4-2.4-2-4.1q-0.3-0.9-0.7-2c-2.2-5.3-5.8-10-10.7-14q-0.1 0-0.2-0.1z"/>
						</g>
						<g id="&lt;Group&gt;">
							<path id="&lt;Path&gt;" class="s1" d="m483.3 222.8l23.4 17.4q0.4 0.3 0.7 0.5c1.9 1.5 4.4 4 5.1 8 0.9 4.9-1.3 9.3-2.6 12-7.3 14.6-14.1 28.2-20.9 41.8-1.8 3.6-3.5 7.1-4.1 10.3-0.6 2.9-1.1 10.6 6.9 19.4 2.6 2.9 5.6 5.3 8.7 7.7l-23.4-17.4c-3.2-2.3-6.1-4.8-8.7-7.7-8.1-8.8-7.6-16.5-7-19.4 0.7-3.2 2.4-6.6 4.2-10.3 6.8-13.6 13.5-27.2 20.8-41.8 1.3-2.7 3.6-7.1 2.7-12-0.7-4-3.3-6.5-5.2-8q-0.3-0.2-0.6-0.5z"/>
						</g>
						<g id="&lt;Group&gt;">
							<path id="&lt;Path&gt;" class="s1" d="m438 491.8l23.4 17.4h-354.1l-23.5-17.4z"/>
						</g>
						<g id="&lt;Group&gt;">
							<path id="&lt;Path&gt;" class="s1" d="m438.3 492l23.5 17.4q-0.3-0.2-0.4-0.2l-23.4-17.4q0.1 0 0.3 0.2z"/>
						</g>
						<g id="&lt;Group&gt;">
							<path id="&lt;Path&gt;" class="s1" d="m437.8 561.8l-23.5-17.3c1 0.7 2.2 1.1 3.5 1.1l23.4 17.4c-1.3 0-2.5-0.4-3.4-1.2z"/>
						</g>
						<g id="&lt;Group&gt;">
							<path id="&lt;Path&gt;" class="s1" d="m499.7 337.6l23.5 17.4c13.7 10.2 21.3 22.1 22.5 35.3 0.6 7.7-0.9 15.3-2.3 22.6-0.4 1.7-0.7 3.4-1 5-1.8 9.6-1.5 15.8 0.9 20.2 0.6 1.1 1.4 2.1 2.5 2.9l-23.5-17.4c-1-0.7-1.9-1.7-2.5-2.9-2.4-4.3-2.6-10.6-0.9-20.2 0.3-1.6 0.7-3.3 1-5 1.5-7.3 3-14.9 2.3-22.6-1.1-13.2-8.7-25-22.5-35.3z"/>
						</g>
						<g id="&lt;Group&gt;">
							<path id="&lt;Path&gt;" class="s1" d="m506.5 487.1l23.5 17.4c-4.8-0.1-5.4 0-5.7 0.1l-23.4-17.4c0.2-0.1 0.9-0.2 5.6-0.1z"/>
						</g>
						<g id="&lt;Group&gt;">
							<path id="&lt;Path&gt;" class="s1" d="m475.8 545.6l23.4 17.4h-58l-23.4-17.4z"/>
						</g>
						<g id="&lt;Group&gt;">
							<path id="&lt;Path&gt;" class="s1" d="m535.4 427.6l23.4 17.3c2.3 1.7 4.4 5 3.2 11.5-1.2 7.2-3.4 14.4-5.4 21.3-1.1 3.4-2 6.6-2.9 9.8-0.8 3.2-2.3 8.6-6.5 12.5-4.6 4.2-9.7 4.7-13.2 4.7-1.4 0-2.7-0.1-4-0.2l-23.5-17.4c1.3 0.1 2.7 0.2 4 0.2 3.5 0 8.7-0.5 13.2-4.7 4.3-3.9 5.7-9.3 6.6-12.5 0.8-3.2 1.8-6.4 2.8-9.8 2.1-6.9 4.2-14.1 5.5-21.2 1.1-6.6-1-9.9-3.2-11.5z"/>
						</g>
						<g id="&lt;Group&gt;">
							<path id="&lt;Path&gt;" class="s1" d="m500.9 487.2l23.4 17.4c-0.2 0.9 0.1 3.3 0.2 4.8 0.4 3.5 0.9 7.9-0.8 12.5-2.7 7.7-9.5 11.8-14.9 15.1-2.3 1.4-6.5 4-6.6 5 0 0.7 0.9 2.2 1.6 3.4 1 1.7 2.1 3.7 2.8 6.2q0.3 1.1 0.4 2.3c0.3 2.2-0.5 4.5-2 6.3-1.6 1.7-3.7 2.8-5.8 2.8l-23.4-17.4c2.1 0 4.2-1.1 5.7-2.8 1.5-1.8 2.3-4.1 2-6.2q-0.1-1.3-0.4-2.4c-0.6-2.5-1.8-4.5-2.8-6.2-0.7-1.2-1.6-2.7-1.5-3.3 0-1.1 4.3-3.7 6.5-5.1 5.5-3.3 12.2-7.4 15-15.1 1.6-4.6 1.1-9 0.8-12.5-0.2-1.5-0.5-3.9-0.2-4.8z"/>
						</g>
						<g id="&lt;Group&gt;">
							<path id="&lt;Path&gt;" class="s1" d="m384.3 35.2c1.3 0 2.6 0.5 3.6 1.2 4.9 4 8.5 8.7 10.7 14q0.4 1.1 0.7 2c0.6 1.7 1.2 3.4 2 4.1 0.5 0.5 1 0.9 1.6 1.3 1.3 1 2.8 2.2 4.3 4.4 0.9 1.3 1.3 3 1 4.7q-0.1 1-0.5 2c-6.1 15-9 26.4-9.3 36.9-0.2 10.8 2.4 21.7 7.9 32.2 4.8 9.2 11.8 18.2 20.7 26.8q1 1 2.1 2c9.5 9 20.3 19.3 20.3 35.3 0 2-0.1 4-0.2 6.1-0.1 3.1-0.3 6.3 0 8.8 0.2 2.4 0.8 2.9 0.8 2.9 1 0.1 2.2-0.3 3.4-0.7 5-1.6 8.4-2.1 11.8-2.1 7 0 13.7 2.2 18.7 6.2 1.9 1.5 4.5 4 5.2 8 0.9 4.9-1.4 9.3-2.7 12-7.3 14.6-14 28.2-20.8 41.8-1.8 3.7-3.5 7.1-4.2 10.3-0.6 2.9-1.1 10.6 7 19.4 5.5 6 12.4 10.5 19.8 15.2 3.4 2.1 7 4.4 10.4 6.8 14.5 10.4 22.4 22.5 23.6 36.1 0.7 7.7-0.8 15.3-2.3 22.6-0.3 1.7-0.7 3.4-1 5-1.7 9.6-1.5 15.9 0.9 20.2 1.2 2.2 3.4 3.9 5.9 4.5 0.8 0.2 1.7 0.2 2.6 0.3 1.5 0.1 3.2 0.3 4.8 0.9 2.7 1 7 3.9 5.5 12.7-1.3 7.1-3.4 14.3-5.5 21.2-1 3.4-2 6.6-2.8 9.8-0.9 3.2-2.3 8.6-6.6 12.5-4.5 4.2-9.7 4.7-13.2 4.7-1.3 0-2.7-0.1-4-0.2-4.7-0.1-5.4 0-5.6 0.1-0.3 0.9 0 3.3 0.2 4.8 0.3 3.5 0.8 7.9-0.8 12.5-2.8 7.7-9.5 11.8-15 15.1-2.2 1.4-6.5 4-6.5 5.1-0.1 0.6 0.8 2.1 1.5 3.3 1 1.7 2.2 3.7 2.8 6.2q0.3 1.1 0.4 2.4c0.3 2.1-0.5 4.4-2 6.2-1.5 1.7-3.6 2.8-5.7 2.8h-58c-2.2 0-4.1-1.2-5.1-3.1-1-1.9-1-4.3 0.1-6.5 3.6-7.5 9.7-13.1 13.9-16.6 1.4-1.3 3-2.6 4.6-3.8 3.2-2.6 9.2-7.4 10.2-9.3 0.7-1.6 0.7-7.5-1.4-11.9-1-2-2-2.6-2.1-2.6h-354.2c-1.9 0-3.5-0.8-4.6-2.2-1.1-1.5-1.4-3.4-1.1-5.4 3.7-18.4 7.2-37.1 10.5-55.6 7.2-41.2 13.4-83 18.4-124.1l0.3-2.4c2-16.2 4-32.9 9.4-49.4 0.9-2.9 2-5.8 3-8.6 2-5.4 3.8-10.5 4.9-15.6 1-4.5 2.1-13-1.7-18.7-1-1.5-2.5-2.9-4-4.4-2.5-2.5-5.4-5.3-7.2-9.4-1.1-2.7-1.6-5.5-2.1-7.9-0.3-2-0.7-3.9-1.3-5.2-1-2-3.1-3.8-5.3-5.7-3.6-3.1-8.2-7-9.4-13.7-1.6-9.7 4.8-18.8 9.5-25.4 3.3-4.5 5.2-9.2 5.4-11.3-1.1 0-2.1 0.1-3.1 0.2-1.4 0.2-2.9 0.4-4.5 0.4-1.9 0-3.6-0.3-5.1-0.7-4.3-1.3-8.3-3.7-11.6-6.8q-0.7-0.7-1.4-1.4c-0.5-0.5-1-1-1.4-1.5-0.3-0.4-0.7-0.8-1.1-1.3-0.5-0.7-0.8-1.1-1.1-1.6-0.3-0.4-0.6-0.9-1-1.4-1-1.7-1.4-2.4-1.8-3.1q-0.6-1-1.1-2-1-2-1.9-3.9c-1-2.4-1.5-3.5-2-4.8-1.2-3.2-1.6-4.1-2-5l-5-13.3q-6.6-17.4-13.1-34.8c-0.9-2.2-0.5-4.9 1.1-7.1 1.5-2.1 3.9-3.5 6.3-3.5z"/>
						</g>
					</g>
				</g>
				<g id="&lt;Group&gt;">
					<g id="&lt;Group&gt;">
						<g id="&lt;Group&gt;">
							<path id="&lt;Path&gt;" class="s2" d="m102.7 134l-15.7-11.5c2.7 2 5.8 3.5 8.9 4.5 1.6 0.4 3.3 0.7 5.1 0.7 1.7 0 3.2-0.2 4.5-0.4 1.1-0.1 2.1-0.2 3.2-0.2l15.6 11.6c-1.1 0-2.1 0.1-3.1 0.2-1.4 0.2-2.9 0.3-4.5 0.3-1.9 0-3.6-0.2-5.1-0.7-3.2-0.9-6.2-2.5-8.9-4.5z"/>
						</g>
						<g id="&lt;Group&gt;">
							<path id="&lt;Path&gt;" class="s2" d="m96.1 502.6l-15.6-11.6c1 0.7 2.2 1.1 3.5 1.1l15.6 11.6c-1.3 0-2.5-0.4-3.5-1.1z"/>
						</g>
						<g id="&lt;Group&gt;">
							<path id="&lt;Path&gt;" class="s2" d="m387.9 36.6l15.6 11.6q0.1 0.1 0.2 0.1c4.9 3.9 8.5 8.6 10.7 14q0.4 1 0.7 2c0.6 1.7 1.2 3.3 2 4 0.5 0.5 1 0.9 1.6 1.3 1.3 1.1 2.8 2.3 4.3 4.5 0.9 1.3 1.3 3 1 4.7q-0.1 1-0.5 2c-6.1 14.9-9 26.3-9.3 36.9-0.2 10.8 2.4 21.6 7.9 32.2 4.8 9.2 11.8 18.2 20.7 26.7q1 1 2.1 2c9.5 9.1 20.3 19.3 20.3 35.4 0 1.9-0.1 4-0.2 6-0.1 3.2-0.3 6.4 0 8.9 0.2 2.4 0.7 2.9 0.8 2.9l-15.7-11.6c0 0-0.5-0.5-0.8-2.9-0.2-2.5-0.1-5.7 0.1-8.9 0.1-2 0.2-4.1 0.2-6-0.1-16.1-10.9-26.3-20.4-35.4q-1-1-2.1-2c-8.9-8.5-15.8-17.5-20.6-26.7-5.5-10.6-8.2-21.4-7.9-32.2 0.3-10.6 3.1-21.9 9.3-36.9q0.4-1 0.5-2c0.3-1.7-0.1-3.4-1-4.7-1.5-2.2-3-3.4-4.4-4.5-0.5-0.4-1-0.8-1.6-1.3-0.7-0.6-1.3-2.3-1.9-4q-0.4-1-0.8-2c-2.1-5.4-5.7-10.1-10.7-14q-0.1 0-0.1-0.1z"/>
						</g>
						<g id="&lt;Group&gt;">
							<path id="&lt;Path&gt;" class="s2" d="m483.4 223.1l15.7 11.6q0.3 0.2 0.6 0.5c1.9 1.5 4.5 4 5.2 8 0.9 4.8-1.4 9.3-2.7 12-7.3 14.6-14 28.2-20.8 41.8-1.8 3.6-3.6 7.1-4.2 10.3-0.6 2.9-1.1 10.6 7 19.4 2.6 2.8 5.5 5.3 8.7 7.6l-15.7-11.5c-3.1-2.4-6.1-4.9-8.7-7.7-8-8.8-7.5-16.5-6.9-19.4 0.6-3.2 2.3-6.7 4.1-10.3 6.8-13.6 13.6-27.2 20.9-41.8 1.3-2.7 3.5-7.2 2.6-12-0.7-4-3.2-6.5-5.1-8q-0.3-0.2-0.7-0.5z"/>
						</g>
						<g id="&lt;Group&gt;">
							<path id="&lt;Path&gt;" class="s2" d="m438.1 492.1l15.7 11.6h-354.2l-15.6-11.6z"/>
						</g>
						<g id="&lt;Group&gt;">
							<path id="&lt;Path&gt;" class="s2" d="m438.5 492.3l15.6 11.6q-0.2-0.2-0.3-0.2l-15.7-11.6q0.1 0 0.4 0.2z"/>
						</g>
						<g id="&lt;Group&gt;">
							<path id="&lt;Path&gt;" class="s2" d="m430.1 556.3l-15.6-11.6c0.9 0.7 2.1 1.1 3.4 1.1l15.7 11.6c-1.3 0-2.5-0.4-3.5-1.1z"/>
						</g>
						<g id="&lt;Group&gt;">
							<path id="&lt;Path&gt;" class="s2" d="m499.9 337.9l15.6 11.6c13.8 10.2 21.4 22.1 22.5 35.3 0.7 7.7-0.8 15.2-2.3 22.6-0.3 1.7-0.7 3.3-1 5-1.7 9.6-1.5 15.8 0.9 20.2 0.6 1.1 1.5 2.1 2.5 2.9l-15.6-11.6c-1.1-0.8-1.9-1.8-2.5-2.9-2.4-4.4-2.7-10.6-0.9-20.2 0.3-1.7 0.6-3.3 1-5 1.4-7.4 2.9-14.9 2.3-22.6-1.2-13.2-8.8-25.1-22.5-35.3z"/>
						</g>
						<g id="&lt;Group&gt;">
							<path id="&lt;Path&gt;" class="s2" d="m506.7 487.4l15.6 11.6c-4.7-0.2-5.4 0-5.6 0.1l-15.7-11.6c0.3-0.1 0.9-0.3 5.7-0.1z"/>
						</g>
						<g id="&lt;Group&gt;">
							<path id="&lt;Path&gt;" class="s2" d="m475.9 545.8l15.7 11.6h-58l-15.7-11.6z"/>
						</g>
						<g id="&lt;Group&gt;">
							<path id="&lt;Path&gt;" class="s2" d="m535.5 427.8l15.7 11.6c2.2 1.7 4.3 5 3.2 11.5-1.3 7.2-3.4 14.4-5.5 21.3-1 3.4-2 6.6-2.8 9.8-0.9 3.2-2.3 8.5-6.6 12.5-4.5 4.2-9.7 4.7-13.2 4.7-1.3 0-2.7-0.1-4-0.2l-15.6-11.6c1.3 0.1 2.6 0.2 4 0.2 3.5 0 8.6-0.5 13.2-4.7 4.2-4 5.7-9.3 6.5-12.5 0.9-3.2 1.8-6.4 2.9-9.8 2-6.9 4.2-14.1 5.4-21.3 1.1-6.5-0.9-9.8-3.2-11.5z"/>
						</g>
						<g id="&lt;Group&gt;">
							<path id="&lt;Path&gt;" class="s2" d="m501 487.5l15.7 11.6c-0.3 0.8 0 3.3 0.2 4.8 0.3 3.5 0.8 7.8-0.8 12.5-2.8 7.7-9.5 11.8-15 15.1-2.2 1.4-6.5 3.9-6.5 5-0.1 0.7 0.8 2.2 1.5 3.4 1 1.7 2.2 3.7 2.8 6.2q0.3 1.1 0.4 2.3c0.3 2.2-0.5 4.5-2 6.2-1.5 1.8-3.6 2.8-5.7 2.8l-15.7-11.6c2.1 0 4.2-1 5.8-2.8 1.5-1.7 2.3-4 2-6.2q-0.1-1.2-0.4-2.3c-0.7-2.5-1.8-4.5-2.8-6.2-0.7-1.2-1.6-2.7-1.6-3.4 0.1-1 4.3-3.6 6.6-5 5.4-3.3 12.2-7.4 14.9-15.1 1.7-4.7 1.2-9 0.8-12.5-0.1-1.5-0.4-3.9-0.2-4.8z"/>
						</g>
						<g id="&lt;Group&gt;">
							<path id="&lt;Path&gt;" class="s2" d="m384.4 35.5c1.4 0 2.6 0.4 3.6 1.2 5 3.9 8.6 8.6 10.7 14q0.4 1 0.8 2c0.6 1.7 1.2 3.4 1.9 4 0.6 0.5 1.1 0.9 1.6 1.3 1.4 1.1 2.9 2.3 4.4 4.5 0.9 1.3 1.3 3 1 4.7q-0.1 1-0.5 2c-6.2 15-9 26.3-9.3 36.9-0.3 10.8 2.4 21.6 7.9 32.2 4.8 9.2 11.7 18.2 20.6 26.7q1.1 1 2.1 2c9.5 9.1 20.3 19.3 20.4 35.4 0 1.9-0.1 4-0.2 6-0.2 3.2-0.3 6.4-0.1 8.9 0.3 2.4 0.8 2.9 0.8 2.9 1.1 0.1 2.3-0.4 3.5-0.8 5-1.5 8.4-2 11.8-2 7 0 13.6 2.2 18.7 6.2 1.9 1.5 4.4 4 5.1 8 0.9 4.8-1.3 9.3-2.6 12-7.3 14.6-14.1 28.2-20.9 41.8-1.8 3.6-3.5 7.1-4.1 10.3-0.6 2.9-1.1 10.6 6.9 19.4 5.5 6 12.5 10.4 19.9 15.1 3.4 2.2 6.9 4.5 10.3 6.9 14.5 10.4 22.5 22.5 23.7 36.1 0.6 7.7-0.9 15.2-2.3 22.6-0.4 1.7-0.7 3.3-1 5-1.8 9.6-1.5 15.8 0.9 20.2 1.2 2.2 3.4 3.9 5.9 4.5 0.7 0.1 1.6 0.2 2.6 0.3 1.5 0.1 3.2 0.2 4.8 0.8 2.7 1 6.9 4 5.4 12.7-1.2 7.2-3.4 14.4-5.4 21.3-1.1 3.4-2 6.6-2.9 9.8-0.8 3.2-2.3 8.5-6.5 12.5-4.6 4.2-9.7 4.7-13.2 4.7-1.4 0-2.7-0.1-4-0.2-4.8-0.2-5.4 0-5.7 0.1-0.2 0.9 0.1 3.3 0.2 4.8 0.4 3.5 0.9 7.8-0.8 12.5-2.7 7.7-9.5 11.8-14.9 15.1-2.3 1.4-6.5 4-6.6 5 0 0.7 0.9 2.2 1.6 3.4 1 1.7 2.1 3.7 2.8 6.2q0.3 1.1 0.4 2.3c0.3 2.2-0.5 4.5-2 6.2-1.6 1.8-3.7 2.8-5.8 2.8h-58c-2.2 0-4.1-1.1-5.1-3-1-1.9-0.9-4.4 0.2-6.6 3.6-7.4 9.6-13 13.9-16.6 1.4-1.2 3-2.5 4.6-3.7 3.2-2.6 9.1-7.4 10.2-9.3 0.7-1.6 0.7-7.5-1.4-11.9-1-2.1-2-2.6-2.2-2.6h-354.1c-1.9 0-3.6-0.8-4.6-2.3-1.1-1.4-1.5-3.3-1.1-5.3 3.7-18.4 7.2-37.2 10.4-55.6 7.3-41.3 13.5-83 18.5-124.1l0.3-2.4c2-16.2 4-32.9 9.3-49.4 1-2.9 2-5.8 3.1-8.6 1.9-5.4 3.8-10.5 4.9-15.6 1-4.6 2.1-13.1-1.8-18.7-1-1.5-2.4-2.9-3.9-4.4-2.6-2.5-5.4-5.3-7.2-9.5-1.2-2.6-1.7-5.4-2.1-7.8-0.4-2-0.7-3.9-1.3-5.3-1-1.9-3.1-3.7-5.3-5.6-3.7-3.2-8.2-7.1-9.4-13.7-1.7-9.8 4.8-18.8 9.5-25.4 3.2-4.5 5.2-9.2 5.4-11.3-1.1 0-2.1 0.1-3.2 0.2-1.3 0.2-2.8 0.4-4.5 0.4-1.8 0-3.5-0.3-5.1-0.7-4.3-1.4-8.3-3.7-11.6-6.8q-0.7-0.7-1.4-1.4c-0.5-0.6-0.9-1.1-1.3-1.5-0.4-0.4-0.7-0.9-1.1-1.4-0.5-0.6-0.8-1.1-1.2-1.5-0.3-0.5-0.6-0.9-0.9-1.4-1.1-1.8-1.5-2.4-1.9-3.1q-0.5-1-1.1-2.1c-0.6-1.3-1.3-2.5-1.8-3.8-1.1-2.5-1.5-3.5-2.1-4.9-1.2-3.1-1.5-4-1.9-5l-5-13.2q-6.6-17.4-13.2-34.8c-0.8-2.2-0.4-4.9 1.1-7.1 1.5-2.2 3.9-3.5 6.3-3.5z"/>
						</g>
					</g>
				</g>
				<g id="&lt;Group&gt;">
					<path id="&lt;Path&gt;" class="s3" d="m383.7 42.8c3.9 3.1 7.1 6.9 9 11.7 1.2 2.8 2 6 4.2 8.1 2 1.8 3.5 2.5 5.1 4.8-5.4 13-9.6 26.4-9.9 39.7-0.6 25.8 13.4 47.5 30.3 63.7 9.5 9 20.6 18.5 20.7 32.8 0 9.4-2.8 23.1 6 23.9 2.9 0.1 5.2-0.9 7.4-1.6 2.7-0.8 5.5-1.2 8.2-1.2 5.6 0 10.9 1.7 15.1 5 1.4 1.1 2.7 2.5 3.1 4.4 0.4 2.3-0.8 4.8-2 7.1q-10.4 21-20.8 41.8c-2 4.1-4 8.1-4.9 12.4-1.9 9.7 2.5 18.7 8.4 25.2 8.7 9.5 20.6 15.3 31.1 22.7 10.4 7.5 20 17.8 21.2 31.7 0.7 8.4-1.6 17.1-3.2 25.7-1.5 8.5-2.2 17.7 1.5 24.6 2 3.7 5.6 6.4 9.6 7.3 2.6 0.6 5.1 0.4 6.7 1 1.7 0.6 2.5 2 1.8 5.7-1.7 10-5.4 20.4-8.1 30.3-0.8 3-1.7 6.3-4.1 8.4-2.2 2.1-5.1 2.6-8.1 2.6-1.6 0-3.3-0.1-5-0.2-1.1-0.1-1.7-0.1-2.3-0.1-3.1 0-6.1 0.5-8.2 3.1-4.6 5.6 0.3 13.3-2.1 20-3.6 10.2-21.6 12.1-22 22.5-0.1 4.5 3.5 7.4 4.6 11.6l-57.7 1.4c2.6-5.5 7.1-9.9 11.7-13.8 5.9-5 14.7-11.3 16.9-15.8 3.3-6.6 0.2-24.2-8.4-24.2h-354.2q5.6-27.9 10.5-55.8c7.3-41.5 13.4-83 18.5-124.5 2-16.8 3.9-33.8 9.3-50.3 2.7-8.3 6.3-16.5 8.1-25 1.9-8.4 1.8-17.5-2.6-23.9-3.2-4.7-8.3-7.6-10.6-12.9-1.8-4.1-1.6-9.3-3.5-13.3-3.4-7.1-12.8-9.7-14.2-17.7-1.2-7.1 4.4-14.3 9-20.7 3.8-5.3 10.4-19.1 1.9-20.7q-1-0.2-2-0.2c-1.2 0-2.4 0.2-3.6 0.3-1.2 0.1-2.5 0.3-3.7 0.3-1.2 0-2.3-0.1-3.4-0.5-3.5-1-6.7-3-9.4-5.5q-0.6-0.6-1.2-1.2-0.6-0.6-1.1-1.2-0.5-0.6-0.9-1.2c-2.9-4.2-3.2-4.7-3.5-5.3q-0.5-0.9-1-1.9-1-1.8-1.8-3.6c-1-2.3-1.4-3.4-1.9-4.5-0.9-2.5-1.4-3.7-1.9-4.9q-9.1-24.1-18.2-48.1z"/>
				</g>
			</g>
		</g>
	</g>
</svg>