<svg version="1.2" xmlns="http://www.w3.org/2000/svg" viewBox="0 0 700 600" width="700" height="600">
	<title>LightState_36-ai</title>
	<style>
		.s0 { fill: #e0e7ff } 
		.s1 { fill: #062841 } 
		.s2 { fill: #062841 } 
		.s3 { fill: current } 
	</style>
	<g id="_Artboards_">
	</g>
	<g id="&lt;Layer&gt;">
		<g id="&lt;Group&gt;">
			<g id="&lt;Group&gt;">
				<g id="&lt;Group&gt;">
					<g id="&lt;Group&gt;">
						<g id="&lt;Group&gt;">
							<path id="&lt;Path&gt;" class="s0" d="m42.3 391l-20.6-15.3c1.6 1.3 3.7 2 6 2l20.6 15.2c-2.3 0-4.4-0.7-6-1.9z"/>
						</g>
						<g id="&lt;Group&gt;">
							<path id="&lt;Path&gt;" class="s0" d="m163.4 377.7l20.6 15.2h-135.7l-20.6-15.2z"/>
						</g>
						<g id="&lt;Group&gt;">
							<path id="&lt;Path&gt;" class="s0" d="m175.4 492.2l-20.6-15.3c1.7 1.3 3.7 2 6.1 2l20.6 15.3c-2.4 0-4.4-0.8-6.1-2z"/>
						</g>
						<g id="&lt;Group&gt;">
							<path id="&lt;Path&gt;" class="s0" d="m470 146.7l20.6 15.3q0.1 0.1 0.3 0.2c4.7 3.8 9.2 7.7 13.5 11.4 4.2 3.6 8.5 7.3 13 11 0.5 0.4 1.1 0.9 1.8 1.4l-20.6-15.3c-0.7-0.5-1.3-1-1.8-1.4-4.5-3.6-8.8-7.4-13-11-4.3-3.7-8.8-7.5-13.5-11.3q-0.2-0.2-0.3-0.3z"/>
						</g>
						<g id="&lt;Group&gt;">
							<path id="&lt;Path&gt;" class="s0" d="m569 164.2l20.6 15.3c3.5 2.6 5.6 6.1 7.1 8.6 0.6 0.9 1.4 2.2 1.8 2.8l-20.6-15.3c-0.4-0.5-1.2-1.8-1.8-2.7-1.5-2.6-3.6-6.1-7.1-8.7z"/>
						</g>
						<g id="&lt;Group&gt;">
							<path id="&lt;Path&gt;" class="s0" d="m599 178.9l20.6 15.2q1.4 1 2.6 2.4c3.8 4.4 4.4 9.8 4.8 13.5 0.1 0.9 0.2 2.1 0.4 2.5l-20.6-15.2c-0.2-0.5-0.3-1.7-0.4-2.6-0.4-3.6-1-9.1-4.8-13.5q-1.2-1.4-2.6-2.3z"/>
						</g>
						<g id="&lt;Group&gt;">
							<path id="&lt;Path&gt;" class="s0" d="m606.8 197.3l20.6 15.2c1 2.1 1.6 2.6 1.7 2.7 1.9 1.5 3.2 3.7 3.6 6.3 0.3 1.5 0.6 2.5 0.8 3.6 0.3 1.3 0.5 2 0.7 2.7 0.8 3.3 1.7 6.8 3 11.4q0.4 1.4 0.8 2.7 0.3 0.9 0.6 1.8 0.4 1.4 0.8 2.7 0.6 2.2 1.3 4.4c0.2 0.7 0.4 1.5 0.6 2.4 0.1 0.1 0.8 2.6 0.8 2.6l-20.6-15.2c0-0.1-0.7-2.6-0.8-2.7-0.2-0.9-0.4-1.6-0.6-2.3q-0.7-2.2-1.3-4.4-0.4-1.4-0.8-2.8-0.3-0.9-0.6-1.8-0.4-1.3-0.8-2.6c-1.3-4.6-2.2-8.1-3-11.5-0.2-0.6-0.4-1.3-0.7-2.7-0.2-1.1-0.4-2-0.8-3.6-0.4-2.6-1.7-4.8-3.6-6.3-0.1 0-0.7-0.5-1.7-2.6z"/>
						</g>
						<g id="&lt;Group&gt;">
							<path id="&lt;Path&gt;" class="s0" d="m621.5 240.6l20.6 15.2c0.8 3.1 1 3.8 1.2 4.6 0.2 0.7 0.5 1.6 0.7 2.6l-20.6-15.2c-0.2-1.1-0.5-1.9-0.7-2.7-0.2-0.7-0.4-1.5-1.2-4.5z"/>
						</g>
						<g id="&lt;Group&gt;">
							<path id="&lt;Path&gt;" class="s0" d="m623.4 247.8l20.6 15.2q0.3 1.2 0.6 2.4l-20.6-15.3q-0.3-1.2-0.6-2.3z"/>
						</g>
						<g id="&lt;Group&gt;">
							<path id="&lt;Path&gt;" class="s0" d="m624 250.1l20.6 15.3c0.2 0.6 0.3 1.4 0.5 2.3 0.3 1.2 0.5 1.9 0.6 2.7q0.3 1.2 0.6 2.6 0.2 1.1 0.4 2.2c0.3 1.8 0.4 2.4 0.5 3l-20.6-15.2c-0.1-0.7-0.2-1.2-0.5-3q-0.2-1.2-0.4-2.3-0.3-1.4-0.6-2.6c-0.1-0.7-0.3-1.5-0.6-2.7-0.2-0.9-0.3-1.6-0.5-2.3z"/>
						</g>
						<g id="&lt;Group&gt;">
							<path id="&lt;Path&gt;" class="s0" d="m626.6 263l20.6 15.2q0.2 1.3 0.4 2.5 0.1 1 0.2 2c0.3 2.3 0.4 2.9 0.4 3.6q0.1 1 0.2 2l-20.6-15.3q-0.1-0.9-0.2-2c0-0.6-0.1-1.3-0.4-3.6q-0.1-0.9-0.2-2-0.2-1.2-0.4-2.4z"/>
						</g>
						<g id="&lt;Group&gt;">
							<path id="&lt;Path&gt;" class="s0" d="m627.8 273l20.6 15.3c0.2 4.5 0.3 5.4 0.3 6.3q0 0.9 0 2c0 2.1-0.1 2.9-0.1 3.7-0.1 3.2-0.4 6.2-0.7 9.2-0.4 5.1-0.9 9.9-0.4 14 0.6 5.2 2.7 10.6 4.9 16.3 3.5 9 7.5 19.3 6.2 31.7-0.6 6-2.4 11.5-3.9 16.3-1.6 4.9-2.9 9.1-2.8 12.4 0.1 2.9 1.4 6.4 2.7 9.7 0.4 1.1 2 5.4 2.4 6.5 4.1 10.8 8.1 21.3 12.1 31.8l-20.6-15.3c-4-10.5-8-20.9-12.1-31.8-0.4-1-2-5.3-2.4-6.4-1.3-3.4-2.6-6.9-2.7-9.8-0.1-3.3 1.2-7.5 2.8-12.4 1.5-4.8 3.3-10.3 3.9-16.2 1.3-12.5-2.7-22.8-6.2-31.8-2.2-5.7-4.3-11-4.9-16.3-0.5-4.1 0-8.9 0.4-13.9 0.3-3 0.6-6.1 0.7-9.3 0.1-0.7 0.1-1.5 0.1-3.7q0-1.1 0-2c0-0.9 0-1.8-0.3-6.3z"/>
						</g>
						<g id="&lt;Group&gt;">
							<path id="&lt;Path&gt;" class="s0" d="m648.5 432.9l20.6 15.3 4.5 12.1-20.6-15.3z"/>
						</g>
						<g id="&lt;Group&gt;">
							<path id="&lt;Path&gt;" class="s0" d="m653 445l20.6 15.3q0.5 1.2 1 2.4c1.1 2.9 1.5 3.7 1.8 4.5 0.9 2 1.3 2.9 1.8 3.8l-20.6-15.3c-0.5-0.8-0.9-1.7-1.8-3.8-0.3-0.7-0.7-1.5-1.8-4.5q-0.5-1.2-1-2.4z"/>
						</g>
						<g id="&lt;Group&gt;">
							<path id="&lt;Path&gt;" class="s0" d="m647 478.9l20.6 15.3h-486.1l-20.6-15.3z"/>
						</g>
						<g id="&lt;Group&gt;">
							<path id="&lt;Path&gt;" class="s0" d="m657.6 455.7l20.6 15.3c3.7 6.6 3.6 11.3 1.4 15.4-2.5 4.7-7.2 7.8-12 7.8l-20.6-15.3c4.8 0 9.5-3.1 12-7.7 2.3-4.2 2.3-8.8-1.4-15.5z"/>
						</g>
						<g id="&lt;Group&gt;">
							<path id="&lt;Path&gt;" class="s0" d="m463.9 144.7c2.4 0 4.6 0.8 6.4 2.3 4.7 3.8 9.2 7.6 13.5 11.3 4.2 3.6 8.5 7.4 13 11 0.5 0.4 1.1 0.9 1.8 1.4 1.1-2.2 2.9-4.7 5.7-6.7 4.4-3.2 8.7-3.3 10.6-3.4 12.5-0.1 24.9-0.3 37.3-0.4q0.8 0 1.6 0c4.4 0 9.4 0.3 14 3.2 4.3 2.7 6.6 6.6 8.3 9.5 0.6 0.9 1.4 2.2 1.8 2.7 2.1 0.1 3.1 0 4.3-0.1 1.4-0.1 2.9-0.2 4.5-0.2 2.4 0 9.8 0 14.9 5.9 3.8 4.4 4.4 9.9 4.8 13.5 0.1 0.9 0.2 2.1 0.4 2.6 1 2.1 1.6 2.6 1.7 2.6 1.9 1.5 3.2 3.7 3.6 6.3 0.4 1.6 0.6 2.5 0.8 3.6 0.3 1.4 0.5 2.1 0.7 2.7 0.8 3.4 1.7 6.9 3 11.5q0.4 1.3 0.8 2.6 0.3 0.9 0.6 1.8 0.4 1.4 0.8 2.8 0.6 2.2 1.3 4.4c0.2 0.7 0.4 1.4 0.6 2.3 0.1 0.1 0.8 2.6 0.8 2.7 0.8 3 1 3.8 1.2 4.5 0.2 0.8 0.5 1.6 0.7 2.7q0.3 1.1 0.6 2.3c0.2 0.7 0.3 1.4 0.5 2.3 0.3 1.2 0.5 2 0.6 2.7q0.3 1.2 0.6 2.6 0.2 1.1 0.4 2.3c0.3 1.8 0.4 2.3 0.5 3q0.2 1.2 0.4 2.4 0.1 1.1 0.2 2c0.3 2.3 0.4 3 0.4 3.6q0.1 1.1 0.2 2c0.3 4.5 0.3 5.4 0.3 6.3q0 0.9 0 2c0 2.2 0 3-0.1 3.7-0.1 3.2-0.4 6.3-0.7 9.3-0.4 5-0.9 9.8-0.4 13.9 0.6 5.3 2.7 10.6 4.9 16.3 3.5 9 7.5 19.3 6.2 31.8-0.6 5.9-2.4 11.4-3.9 16.2-1.6 4.9-2.9 9.1-2.8 12.4 0.1 2.9 1.4 6.4 2.7 9.8 0.4 1.1 2 5.4 2.4 6.4 4.1 10.9 8.1 21.3 12.1 31.8l4.5 12.1q0.5 1.2 1 2.4c1.1 3 1.5 3.8 1.8 4.5 0.9 2.1 1.3 3 1.8 3.8 3.7 6.7 3.7 11.3 1.4 15.5-2.5 4.6-7.2 7.7-12 7.7h-486.1c-6.6 0-11.1-5.6-10.1-12.5l12.6-88.7h-135.7c-6.5 0-11-5.6-10-12.6l29.6-207.8c1-6.9 7.1-12.6 13.6-12.6z"/>
						</g>
					</g>
				</g>
				<g id="&lt;Group&gt;">
					<g id="&lt;Group&gt;">
						<g id="&lt;Group&gt;">
							<path id="&lt;Path&gt;" class="s1" d="m46.2 385.7l-20.6-15.3c0.8 0.7 1.8 1 3 1l20.6 15.3c-1.2 0-2.2-0.4-3-1z"/>
						</g>
						<g id="&lt;Group&gt;">
							<path id="&lt;Path&gt;" class="s1" d="m170.2 371.4l20.6 15.3h-141.6l-20.6-15.3z"/>
						</g>
						<g id="&lt;Group&gt;">
							<path id="&lt;Path&gt;" class="s1" d="m179.3 486.9l-20.6-15.3c0.8 0.7 1.9 1 3 1l20.6 15.3c-1.1 0-2.2-0.4-3-1z"/>
						</g>
						<g id="&lt;Group&gt;">
							<path id="&lt;Path&gt;" class="s1" d="m466 152l20.6 15.3q0.1 0 0.2 0.1c4.6 3.8 9.1 7.6 13.3 11.3 4.3 3.6 8.6 7.3 13.2 11q1 0.9 2.1 1.7l-20.6-15.3q-1.1-0.8-2.1-1.6c-4.6-3.7-8.9-7.5-13.2-11.1-4.2-3.7-8.7-7.5-13.3-11.3q-0.1 0-0.2-0.1z"/>
						</g>
						<g id="&lt;Group&gt;">
							<path id="&lt;Path&gt;" class="s1" d="m565.1 169.5l20.6 15.3c2.7 2 4.3 4.8 5.8 7.2 1.1 1.9 2.1 3.5 3.2 4.3l-20.6-15.3c-1.1-0.8-2.1-2.4-3.2-4.3-1.5-2.4-3.1-5.2-5.8-7.2z"/>
						</g>
						<g id="&lt;Group&gt;">
							<path id="&lt;Path&gt;" class="s1" d="m595.1 184.1l20.6 15.3q0.9 0.7 1.8 1.7c2.7 3.1 3.2 7.2 3.5 10.5 0.2 1.7 0.4 3.4 0.9 4.4 0.4 0.8 1.6 3.2 3.1 4.4 1 0.7 1.6 1.8 1.8 3.1 0.4 1.7 0.6 2.7 0.8 3.8 0.4 1.4 0.5 2.2 0.7 2.9 0.8 3.4 1.8 7 3.2 11.6q0.4 1.4 0.8 2.7 0.2 0.9 0.5 1.8 0.4 1.4 0.8 2.8 0.6 2.2 1.3 4.4 0.3 1.1 0.6 2.2l-20.6-15.2q-0.3-1.2-0.6-2.3-0.7-2.2-1.3-4.4-0.4-1.4-0.8-2.7-0.3-0.9-0.5-1.9-0.4-1.3-0.8-2.6c-1.4-4.7-2.3-8.3-3.2-11.7-0.1-0.7-0.3-1.4-0.6-2.8-0.3-1.1-0.5-2.2-0.9-3.9-0.2-1.2-0.8-2.3-1.8-3.1-1.5-1.2-2.7-3.6-3.1-4.4-0.5-1-0.7-2.6-0.9-4.4-0.3-3.3-0.8-7.3-3.5-10.5q-0.9-1-1.8-1.7z"/>
						</g>
						<g id="&lt;Group&gt;">
							<path id="&lt;Path&gt;" class="s1" d="m614.9 240.5l20.6 15.2 0.8 2.7-20.6-15.3z"/>
						</g>
						<g id="&lt;Group&gt;">
							<path id="&lt;Path&gt;" class="s1" d="m615.7 243.1l20.6 15.3c0.8 3 1 3.7 1.2 4.4l-20.6-15.2c-0.2-0.7-0.4-1.5-1.2-4.5z"/>
						</g>
						<g id="&lt;Group&gt;">
							<path id="&lt;Path&gt;" class="s1" d="m616.9 247.6l20.6 15.2c0.2 0.8 0.4 1.6 0.7 2.7l-20.6-15.3c-0.3-1-0.5-1.9-0.7-2.6z"/>
						</g>
						<g id="&lt;Group&gt;">
							<path id="&lt;Path&gt;" class="s1" d="m617.6 250.2l20.6 15.3q0.3 1.1 0.5 2.2l-20.6-15.3q-0.2-1.1-0.5-2.2z"/>
						</g>
						<g id="&lt;Group&gt;">
							<path id="&lt;Path&gt;" class="s1" d="m618.1 252.4l20.6 15.3c0.2 0.7 0.4 1.4 0.6 2.2 0.2 1.2 0.4 1.9 0.6 2.7q0.2 1.2 0.5 2.5 0.2 1.1 0.4 2.2c0.3 1.7 0.4 2.2 0.5 2.8l-20.6-15.2c-0.1-0.6-0.2-1.2-0.5-2.9q-0.2-1.1-0.4-2.2-0.3-1.3-0.5-2.5c-0.2-0.7-0.4-1.5-0.6-2.6-0.2-0.9-0.4-1.6-0.6-2.3z"/>
						</g>
						<g id="&lt;Group&gt;">
							<path id="&lt;Path&gt;" class="s1" d="m620.7 264.9l20.6 15.2c0.1 0.8 0.2 1.5 0.3 2.4q0.2 0.9 0.3 1.8c0.2 2.3 0.3 2.9 0.3 3.5q0.1 1 0.2 1.9l-20.6-15.2q-0.1-1-0.1-2c-0.1-0.6-0.2-1.2-0.4-3.4q-0.1-0.9-0.3-1.9c-0.1-0.8-0.2-1.6-0.3-2.3z"/>
						</g>
						<g id="&lt;Group&gt;">
							<path id="&lt;Path&gt;" class="s1" d="m621.8 274.5l20.6 15.2c0.2 4.2 0.3 5.1 0.3 5.9 0 0.7 0 1.2 0 1.9 0 2-0.1 2.7-0.1 3.4-0.1 3.1-0.4 6.1-0.6 9-0.5 5.4-1 10.5-0.5 15.2 0.7 6 2.9 11.7 5.3 17.7 3.4 8.9 7 18 5.8 29-0.5 5.2-2.1 10.1-3.6 14.8-1.7 5.3-3.3 10.3-3.1 14.8 0.1 3.8 1.6 7.8 3 11.5 0.5 1.2 2.1 5.5 2.5 6.6 4.1 10.8 8.1 21.2 12 31.7l-20.6-15.3c-3.9-10.4-7.9-20.9-12-31.7-0.4-1-2-5.4-2.4-6.5-1.5-3.8-3-7.7-3.1-11.6-0.2-4.5 1.4-9.5 3.1-14.7 1.5-4.8 3.1-9.7 3.7-14.9 1.1-10.9-2.5-20.1-5.9-28.9-2.4-6.1-4.6-11.7-5.3-17.7-0.5-4.8 0-9.9 0.5-15.3 0.2-2.9 0.5-5.9 0.6-8.9 0.1-0.7 0.1-1.5 0.1-3.5 0-0.6 0-1.2 0-1.8 0-0.9-0.1-1.8-0.3-5.9z"/>
						</g>
						<g id="&lt;Group&gt;">
							<path id="&lt;Path&gt;" class="s1" d="m642.8 435.9l20.6 15.3 4.6 12.1-20.6-15.3z"/>
						</g>
						<g id="&lt;Group&gt;">
							<path id="&lt;Path&gt;" class="s1" d="m647.9 472.6l20.6 15.3h-486.2l-20.6-15.3z"/>
						</g>
						<g id="&lt;Group&gt;">
							<path id="&lt;Path&gt;" class="s1" d="m647.4 448l20.6 15.3q0.5 1.2 0.9 2.4c1.2 3.1 1.6 3.9 1.9 4.7 1 2.2 1.5 3.2 2 4.2q0.4 0.8 0.8 1.5c2 3.5 2 5.9 0.9 7.9-1.3 2.4-3.6 3.9-6 3.9l-20.6-15.3c2.4 0 4.8-1.5 6-3.8 1.1-2.1 1.1-4.5-0.9-8q-0.4-0.7-0.8-1.5c-0.5-1-1-2-2-4.1-0.3-0.8-0.7-1.7-1.9-4.7q-0.4-1.2-0.9-2.5z"/>
						</g>
						<g id="&lt;Group&gt;">
							<path id="&lt;Path&gt;" class="s1" d="m463 151c1.2 0 2.3 0.4 3.2 1.1 4.6 3.8 9.1 7.6 13.3 11.3 4.3 3.6 8.6 7.4 13.2 11.1 2.1 1.7 4.5 3.6 6.8 3.9 1.5 0.1 2.4-0.4 2.6-0.6 0.8-2.8 1.7-6.4 5.1-8.8 2.7-2 5.4-2.1 6.9-2.1q18.6-0.2 37.2-0.5 0.8 0 1.6 0c3.6 0 7.8 0.3 11.3 2.5 3.3 2.1 5.1 5.1 6.7 7.8 1.3 2.1 2.4 4 3.7 4.7 0.8 0.3 1.9 0.5 3.6 0.5 1 0 2.2 0 3.5-0.1 1.3-0.1 2.7-0.2 4.1-0.2 3.2 0 7.8 0.4 11.1 4.2 2.7 3.2 3.2 7.2 3.5 10.5 0.2 1.8 0.4 3.4 0.9 4.4 0.4 0.8 1.6 3.2 3.1 4.4 1 0.8 1.6 1.9 1.8 3.1 0.4 1.7 0.6 2.8 0.9 3.9 0.3 1.4 0.5 2.1 0.6 2.8 0.9 3.4 1.8 7 3.2 11.7q0.4 1.3 0.8 2.6 0.2 1 0.5 1.9 0.4 1.3 0.8 2.7 0.6 2.2 1.3 4.4 0.3 1.1 0.6 2.3l0.8 2.6c0.8 3 1 3.8 1.2 4.5 0.2 0.7 0.4 1.6 0.7 2.6q0.3 1.1 0.5 2.2c0.2 0.7 0.4 1.4 0.6 2.3 0.2 1.1 0.4 1.9 0.6 2.6q0.2 1.2 0.5 2.5 0.2 1.1 0.4 2.2c0.3 1.7 0.4 2.3 0.5 2.9 0.1 0.7 0.2 1.5 0.3 2.3q0.2 1 0.3 1.9c0.2 2.2 0.3 2.8 0.4 3.4q0 1 0.1 2c0.2 4.1 0.3 5 0.3 5.9 0 0.6 0 1.2 0 1.8 0 2 0 2.8-0.1 3.5-0.1 3-0.4 6-0.6 8.9-0.5 5.4-1 10.5-0.5 15.3 0.7 6 2.9 11.6 5.3 17.7 3.4 8.8 7 18 5.9 28.9-0.6 5.2-2.2 10.1-3.7 14.9-1.7 5.2-3.3 10.2-3.1 14.7 0.1 3.9 1.6 7.8 3.1 11.6 0.4 1.1 2 5.5 2.4 6.5 4.1 10.8 8.1 21.3 12 31.7l4.6 12.1q0.5 1.3 0.9 2.5c1.2 3 1.6 3.9 1.9 4.7 1 2.1 1.5 3.1 2 4.1q0.4 0.8 0.8 1.5c2 3.5 2 5.9 0.9 8-1.2 2.3-3.6 3.8-6 3.8h-486.2c-3.2 0-5.5-2.8-5-6.2l13.5-95h-141.6c-3.3 0-5.5-2.8-5-6.3l29.6-207.8c0.5-3.5 3.5-6.3 6.8-6.3z"/>
						</g>
					</g>
				</g>
				<g id="&lt;Group&gt;">
					<g id="&lt;Group&gt;">
						<g id="&lt;Group&gt;">
							<path id="&lt;Path&gt;" class="s2" d="m39.4 380.9l-13.7-10.2c0.8 0.6 1.9 0.9 3 0.9l13.8 10.2c-1.2 0-2.2-0.3-3.1-0.9z"/>
						</g>
						<g id="&lt;Group&gt;">
							<path id="&lt;Path&gt;" class="s2" d="m170.4 371.6l13.7 10.2h-141.6l-13.8-10.2z"/>
						</g>
						<g id="&lt;Group&gt;">
							<path id="&lt;Path&gt;" class="s2" d="m172.6 482.1l-13.7-10.2c0.8 0.6 1.8 1 3 1l13.7 10.1c-1.2 0-2.2-0.3-3-0.9z"/>
						</g>
						<g id="&lt;Group&gt;">
							<path id="&lt;Path&gt;" class="s2" d="m466.2 152.2l13.7 10.2q0.1 0.1 0.2 0.1c4.6 3.8 9 7.6 13.3 11.3 4.2 3.6 8.6 7.4 13.1 11.1q1.1 0.8 2.1 1.6l-13.7-10.1q-1.1-0.9-2.1-1.7c-4.5-3.7-8.9-7.4-13.1-11.1-4.3-3.7-8.7-7.5-13.4-11.2q-0.1-0.1-0.1-0.2z"/>
						</g>
						<g id="&lt;Group&gt;">
							<path id="&lt;Path&gt;" class="s2" d="m565.2 169.8l13.7 10.1c2.8 2.1 4.4 4.8 5.9 7.3 1.1 1.8 2.1 3.4 3.2 4.3l-13.7-10.2c-1.2-0.9-2.1-2.5-3.2-4.3-1.5-2.5-3.2-5.2-5.9-7.2z"/>
						</g>
						<g id="&lt;Group&gt;">
							<path id="&lt;Path&gt;" class="s2" d="m595.2 184.4l13.8 10.2q0.9 0.6 1.7 1.6c2.8 3.2 3.3 7.3 3.6 10.5 0.2 1.8 0.4 3.4 0.9 4.4 0.4 0.8 1.6 3.2 3.1 4.4 0.9 0.8 1.6 1.9 1.8 3.2 0.3 1.7 0.6 2.7 0.8 3.8 0.3 1.4 0.5 2.1 0.7 2.9 0.8 3.3 1.8 6.9 3.1 11.6q0.4 1.3 0.8 2.7 0.3 0.9 0.6 1.8 0.4 1.3 0.8 2.7 0.6 2.2 1.3 4.4 0.3 1.1 0.6 2.3l-13.7-10.2q-0.3-1.1-0.7-2.3-0.6-2.2-1.3-4.3-0.4-1.4-0.8-2.8-0.2-0.9-0.5-1.8-0.4-1.4-0.8-2.7c-1.3-4.7-2.3-8.3-3.1-11.6-0.2-0.7-0.4-1.5-0.7-2.9-0.3-1.1-0.5-2.1-0.8-3.8-0.3-1.3-0.9-2.4-1.8-3.2-1.5-1.1-2.7-3.6-3.1-4.4-0.5-0.9-0.7-2.6-0.9-4.4-0.4-3.2-0.8-7.3-3.6-10.5q-0.8-0.9-1.8-1.6z"/>
						</g>
						<g id="&lt;Group&gt;">
							<path id="&lt;Path&gt;" class="s2" d="m615.1 240.7l13.7 10.2 0.8 2.6-13.8-10.2z"/>
						</g>
						<g id="&lt;Group&gt;">
							<path id="&lt;Path&gt;" class="s2" d="m615.8 243.3l13.8 10.2c0.8 3.1 1 3.8 1.2 4.5l-13.8-10.2c-0.1-0.7-0.3-1.4-1.2-4.5z"/>
						</g>
						<g id="&lt;Group&gt;">
							<path id="&lt;Path&gt;" class="s2" d="m617 247.8l13.8 10.2c0.2 0.8 0.4 1.6 0.7 2.6l-13.8-10.2c-0.2-1-0.4-1.8-0.7-2.6z"/>
						</g>
						<g id="&lt;Group&gt;">
							<path id="&lt;Path&gt;" class="s2" d="m617.7 250.4l13.8 10.2q0.3 1.2 0.5 2.3l-13.7-10.2q-0.3-1.1-0.6-2.3z"/>
						</g>
						<g id="&lt;Group&gt;">
							<path id="&lt;Path&gt;" class="s2" d="m618.3 252.7l13.7 10.2c0.2 0.6 0.3 1.3 0.5 2.2 0.3 1.2 0.5 1.9 0.6 2.6q0.3 1.2 0.5 2.5 0.3 1.1 0.5 2.2c0.3 1.8 0.4 2.3 0.4 2.9l-13.7-10.2c-0.1-0.6-0.2-1.1-0.5-2.9q-0.2-1-0.4-2.1-0.2-1.4-0.5-2.5c-0.2-0.8-0.3-1.5-0.6-2.7-0.2-0.8-0.4-1.6-0.5-2.2z"/>
						</g>
						<g id="&lt;Group&gt;">
							<path id="&lt;Path&gt;" class="s2" d="m620.8 265.1l13.7 10.2c0.2 0.7 0.3 1.5 0.4 2.3q0.1 1 0.2 1.9c0.3 2.3 0.4 2.8 0.4 3.5q0.1 0.9 0.2 1.9l-13.7-10.2q-0.1-0.9-0.2-1.9c-0.1-0.6-0.1-1.2-0.4-3.5q-0.1-0.9-0.2-1.8c-0.2-0.9-0.3-1.6-0.4-2.4z"/>
						</g>
						<g id="&lt;Group&gt;">
							<path id="&lt;Path&gt;" class="s2" d="m622 274.7l13.7 10.2c0.2 4.2 0.2 5 0.3 5.9 0 0.6 0 1.2 0 1.8-0.1 2-0.1 2.8-0.1 3.5-0.1 3-0.4 6-0.7 8.9-0.5 5.4-0.9 10.5-0.4 15.3 0.6 6 2.9 11.7 5.2 17.7 3.5 8.8 7.1 18 5.9 28.9-0.5 5.2-2.1 10.1-3.6 14.9-1.7 5.2-3.3 10.2-3.1 14.7 0.1 3.9 1.6 7.8 3 11.6 0.4 1.1 2.1 5.5 2.5 6.6 4.1 10.7 8 21.2 12 31.7l-13.7-10.2c-4-10.5-8-21-12-31.7-0.4-1.1-2.1-5.5-2.5-6.6-1.4-3.8-2.9-7.7-3.1-11.6-0.1-4.5 1.5-9.4 3.1-14.7 1.6-4.7 3.1-9.6 3.7-14.8 1.2-11-2.4-20.1-5.9-29-2.4-6-4.6-11.7-5.2-17.7-0.6-4.8-0.1-9.9 0.4-15.3 0.3-2.9 0.5-5.9 0.7-8.9 0-0.7 0-1.4 0-3.5 0-0.6 0-1.2 0-1.8 0-0.9 0-1.7-0.2-5.9z"/>
						</g>
						<g id="&lt;Group&gt;">
							<path id="&lt;Path&gt;" class="s2" d="m643 436.2l13.7 10.2 4.6 12-13.7-10.1z"/>
						</g>
						<g id="&lt;Group&gt;">
							<path id="&lt;Path&gt;" class="s2" d="m648 472.9l13.8 10.1h-486.2l-13.7-10.1z"/>
						</g>
						<g id="&lt;Group&gt;">
							<path id="&lt;Path&gt;" class="s2" d="m647.6 448.3l13.7 10.1q0.4 1.3 0.9 2.5c1.2 3 1.6 3.9 1.9 4.7 1 2.1 1.4 3.1 1.9 4.1q0.4 0.8 0.9 1.5c2 3.6 2 5.9 0.9 8-1.3 2.3-3.7 3.8-6 3.8l-13.8-10.1c2.4 0 4.8-1.6 6-3.9 1.1-2.1 1.2-4.4-0.9-8q-0.4-0.7-0.8-1.5c-0.5-0.9-1-1.9-1.9-4.1-0.4-0.8-0.7-1.6-1.9-4.7q-0.5-1.2-0.9-2.4z"/>
						</g>
						<g id="&lt;Group&gt;">
							<path id="&lt;Path&gt;" class="s2" d="m463.1 151.3c1.2 0 2.3 0.3 3.2 1.1 4.7 3.7 9.1 7.5 13.4 11.2 4.2 3.7 8.6 7.4 13.1 11.1 2.1 1.7 4.5 3.7 6.9 4 1.5 0 2.3-0.5 2.6-0.7 0.7-2.8 1.6-6.3 5-8.8 2.7-2 5.4-2 6.9-2.1q18.7-0.2 37.3-0.4 0.8 0 1.6 0c3.6 0 7.7 0.3 11.2 2.5 3.3 2 5.1 5.1 6.8 7.8 1.2 2.1 2.3 3.9 3.6 4.6 0.8 0.4 1.9 0.6 3.6 0.6 1.1 0 2.3-0.1 3.5-0.2 1.3-0.1 2.7-0.2 4.1-0.2 3.2 0 7.8 0.5 11.1 4.2 2.8 3.2 3.2 7.3 3.6 10.5 0.2 1.8 0.4 3.5 0.9 4.4 0.4 0.8 1.6 3.3 3.1 4.4 0.9 0.8 1.5 1.9 1.8 3.2 0.3 1.7 0.5 2.7 0.8 3.8 0.3 1.4 0.5 2.2 0.7 2.9 0.8 3.3 1.8 6.9 3.1 11.6q0.4 1.3 0.8 2.7 0.3 0.9 0.5 1.8 0.4 1.4 0.8 2.8 0.7 2.1 1.3 4.3 0.4 1.2 0.7 2.3l0.7 2.6c0.9 3.1 1.1 3.8 1.2 4.5 0.3 0.8 0.5 1.6 0.7 2.6q0.3 1.2 0.6 2.3c0.1 0.6 0.3 1.4 0.5 2.2 0.3 1.2 0.4 1.9 0.6 2.7q0.3 1.1 0.5 2.5 0.2 1.1 0.4 2.1c0.3 1.8 0.4 2.3 0.5 2.9 0.1 0.8 0.2 1.5 0.4 2.4q0.1 0.9 0.2 1.8c0.3 2.3 0.3 2.9 0.4 3.5q0.1 1 0.2 1.9c0.2 4.2 0.2 5 0.2 5.9 0 0.6 0 1.2 0 1.8 0 2.1 0 2.8 0 3.5-0.2 3-0.4 6-0.7 8.9-0.5 5.4-1 10.5-0.4 15.3 0.6 6 2.8 11.7 5.2 17.7 3.5 8.9 7.1 18 5.9 29-0.6 5.2-2.1 10.1-3.7 14.8-1.6 5.3-3.2 10.2-3.1 14.7 0.2 3.9 1.7 7.8 3.1 11.6 0.4 1.1 2.1 5.5 2.5 6.6 4 10.7 8 21.2 12 31.7l4.6 12.1q0.4 1.2 0.9 2.4c1.2 3.1 1.5 3.9 1.9 4.7 0.9 2.2 1.4 3.2 1.9 4.1q0.4 0.8 0.8 1.5c2.1 3.6 2 5.9 0.9 8-1.2 2.3-3.6 3.9-6 3.9h-486.1c-3.3 0-5.5-2.8-5-6.3l13.5-95h-141.7c-3.2 0-5.5-2.8-5-6.2l29.6-207.9c0.5-3.4 3.6-6.2 6.8-6.2z"/>
						</g>
					</g>
				</g>
				<g id="&lt;Group&gt;">
					<path id="&lt;Path&gt;" class="s3" d="m462.5 157.7c9.2 7.4 17.3 14.8 26.5 22.3 2.7 2.2 5.6 4.6 9.3 5 4.5 0.1 8.4-1.8 9.7-5.2 0.7-1.9 0.8-4.3 2.4-5.5 1-0.7 2.2-0.7 3.3-0.7q18.6-0.3 37.2-0.5c4.6 0 7.6 0.2 10.1 1.7 4.7 3 5.8 10.1 10.7 12.7 1.8 0.8 3.8 1.1 5.9 1.1 1.3 0 2.6-0.1 3.9-0.2 1.3-0.1 2.6-0.2 3.8-0.2 2.9 0 5.5 0.5 7.3 2.6 3 3.5 1.6 9.6 3.7 13.8 1 2.1 2.5 4.5 4.4 6.1 0.4 1.8 0.6 2.9 0.9 4 0.3 1.5 0.5 2.2 0.7 3 1 4 2.1 7.9 3.2 11.8q0.7 2.3 1.3 4.6 1.1 3.5 2.1 7.1 0.3 1.1 0.7 2.2 0.3 1.3 0.7 2.6 0.3 1.1 0.6 2.1 0.3 1.2 0.6 2.4 0.4 1.2 0.7 2.5 0.3 1.1 0.5 2.2 0.3 1.1 0.5 2.2c0.3 1.1 0.4 1.8 0.6 2.5q0.3 1.2 0.5 2.4 0.2 1.1 0.4 2.1c0.6 3.5 0.7 4.3 0.8 5q0.1 1 0.2 1.9c0.3 2 0.3 2.6 0.4 3.1q0.1 0.9 0.1 1.9c0.2 3.9 0.3 4.7 0.3 5.5q0 0.8 0 1.7c0 1.9 0 2.6-0.1 3.3-0.3 8.3-1.9 16.9-1 25.1 1.7 15.9 12.8 28.8 11.1 45.2-1.1 10.3-7.2 20.5-6.8 30.5 0.2 4.9 1.8 9.2 3.4 13.5q1.3 3.4 2.6 6.8 8.2 21.8 16.5 43.5 0.6 1.7 1.2 3.3c0.9 2.2 1.3 3.2 1.7 4.1 1 2.3 1.5 3.4 2.1 4.4q0.4 0.9 0.9 1.8 0.4 0.7 0.9 1.5l-486 0.2 14.4-101.2h-147.5l29.6-207.8z"/>
				</g>
			</g>
		</g>
	</g>
</svg>