<svg xmlns="http://www.w3.org/2000/svg" xmlns:svg="http://www.w3.org/2000/svg" width="698.597" height="702.342" viewBox="0 0 654.935 658.446"><g transform="translate(221.72 -85.89)"><path fill="#de222c" d="M97.277 743.657l-300.313-.318v-15.554c0-22.322 2.273-63.827 4.453-81.316 3.646-29.245 16.423-86.487 25.81-115.625 19.876-61.697 51.33-121.909 92.055-176.225C-47.756 310.658-1.967 263.655 35.09 235.74c60.887-45.865 109.434-72.484 173.125-94.928 66.238-23.341 123.554-33.787 196.563-35.823l28.437-.793v310.322c0 284.222-.171 310.684-2.037 314.615-4.528 9.543-16.248 15.839-28.204 15.15-2.961-.17-140.524-.452-305.696-.627zM-80.536 642.353l4.375-.978.778-8.703c.428-4.786.606-8.9.396-9.14-.21-.241-3.972.462-8.358 1.562-9.982 2.503-24.81 2.572-32.956.154-14.047-4.172-22.951-16.883-22.973-32.794-.024-17.559 8.367-30.425 22.596-34.651 8.159-2.423 24.576-2.512 33.33-.182l6.562 1.747v-18.344l-7.187-1.027c-3.953-.565-14.22-1.028-22.813-1.028-20.467 0-30.742 3.06-40.636 12.104-12.677 11.585-17.448 24.027-16.637 43.38.41 9.782 1.145 13.411 3.952 19.516 7.122 15.49 21.486 25.98 40.232 29.38 6.757 1.226 32.293.58 39.34-.996zm468.75-1.864l8.125-1.537.34-24.054.34-24.054h-10.34l-10.34-.001.438 17c.289 11.186-.029 17.467-.927 18.365-.75.751-6.292 1.591-12.313 1.867-10.155.466-11.444.24-17.803-3.107-9.565-5.035-14.154-12.56-14.817-24.297-.416-7.351-.01-9.574 2.811-15.337 3.454-7.06 8.795-11.99 16.674-15.391 6.422-2.772 23.723-2.707 33.26.125 4.026 1.196 7.638 1.858 8.025 1.47.835-.835.676-13.211-.181-14.069-1.405-1.404-11.133-2.885-23.917-3.639-21.036-1.241-33.594 2.777-45.319 14.502-8.741 8.742-10.93 14.753-10.93 30.012 0 10.71.484 14.172 2.631 18.814 6.34 13.701 19.228 22.764 36.118 25.4 5.802.905 29.079-.358 38.125-2.07zM-7.029 638.62c8.4-3.28 16.863-10.18 20.747-16.917 6.092-10.569 7.087-26.683 2.583-41.849-2.51-8.453-10.674-16.749-21.556-21.904-8.096-3.835-8.981-3.979-24.03-3.903-20.167.103-27.408 2.588-37.548 12.89-9.285 9.432-11.694 16.836-10.958 33.676.406 9.297 1.166 13.33 3.274 17.383 5.902 11.342 15.072 18.949 26.82 22.247 9.556 2.684 31.926 1.79 40.668-1.623zm-29.132-11.399c-10.689-2.735-18.398-10.29-20.5-20.09-2.924-13.633-.385-24.753 7.219-31.623 6.36-5.745 12.231-7.541 22.716-6.949 10.714.605 17.636 4.935 22.261 13.923 5.94 11.542 3.492 30.213-4.98 37.99-5.976 5.483-18.9 8.749-26.716 6.75zm79.375-22.628v-36.25h11.082c9.21 0 11.62.425 14.279 2.516 4.138 3.255 5.27 8.557 2.989 14.014-2.31 5.528-8.419 8.47-17.587 8.47h-6.985l13.866 22.813c7.627 12.547 14.281 23.257 14.788 23.801.507.544 5.794.826 11.75.625l10.83-.364-13.74-18.75c-7.557-10.312-13.747-19.105-13.756-19.539-.01-.434 2.387-1.394 5.324-2.133 11.662-2.937 19.034-18.004 14.583-29.809-2.258-5.99-8.74-11.593-15.78-13.64-5.01-1.457-11.68-1.806-28.835-1.512l-22.316.383.016 42.813.016 42.812h19.476v-36.25zm75.249 5.335l-.377-30.917 7.374 10.637c4.055 5.85 13.454 19.762 20.886 30.916l13.512 20.28h24.606v-86.251H174.33c-9.143 0-10.05.214-9.28 2.188 1.356 3.474 2.367 42.56 1.348 52.076l-.926 8.64-8.071-12.39c-4.44-6.814-13.711-20.967-20.604-31.451l-12.533-19.063-12.087.001-12.088.001v86.249l9.375.001h9.375l-.376-30.917zm95.655-12.21l-.279-43.124h-20.442l.01 43.124.01 43.125h20.984l-.279-43.124zm26.848 12.189l-.373-30.939 20.693 30.938 20.693 30.937H306.548v-86.25h-18.959l.42 31.563c.267 20.008-.014 31.105-.769 30.312-.655-.687-10.037-14.89-20.85-31.562l-19.66-30.313h-24.217l.024 43.125.024 43.125 9.39.001 9.389.001-.374-30.938zM9.023 524.678c17.302-3.281 32.069-13.536 38.498-26.737 6.935-14.237 7.044-36.608.25-51.407-5.755-12.539-21.555-24.066-36.915-26.933-17.028-3.178-37.11-.602-50.36 6.461-19.728 10.514-28.962 35.022-22.894 60.76 2.443 10.36 5.452 15.997 12.047 22.57 13.078 13.037 37.746 19.388 59.374 15.286zm-23.309-17.504c-15.238-3.075-23.718-14.526-24.747-33.417-.943-17.317 4.296-27.494 17.566-34.125 18.808-9.398 41.654-1.059 47.802 17.45 2.972 8.946 2.171 26.024-1.556 33.223-7.054 13.62-22.376 20.237-39.065 16.87zm392.647 16.15c11.407-3.168 19.266-13.287 18.21-23.445-.782-7.515-5.728-13.964-18.556-24.193-6.067-4.839-12.16-10.233-13.541-11.988-7.813-9.933 3.886-17.913 19.988-13.635 3.78 1.005 6.987 1.713 7.126 1.575.138-.139-.077-3.437-.479-7.329-.502-4.867-1.36-7.324-2.75-7.871-1.11-.438-7.082-1.099-13.27-1.469-14.113-.844-20.572.82-27.208 7.01-4.473 4.172-5.118 5.5-5.621 11.571-.775 9.337 2.32 15.02 13.61 24.995 21.743 19.21 23.436 21.63 18.984 27.129-3.574 4.413-11.287 5.523-22.406 3.226-5.223-1.078-9.628-1.785-9.79-1.57-.161.214.038 3.483.444 7.264l.737 6.875 7.5 1.427c9.664 1.837 21.286 2.022 27.022.428zM99.968 509.808c1.887-6.757 6.402-21.712 10.033-33.232l6.601-20.947 3.463 11.045c7.123 22.718 14.417 47.43 15.16 51.358l.767 4.062h25.774l.855-4.062c4.474-21.26 17.184-74.333 18.628-77.789l1.838-4.399h-11.163c-10.564 0-11.194.151-11.763 2.813-.33 1.547-2.882 14.744-5.67 29.327-2.79 14.583-5.515 27.713-6.057 29.178-.753 2.035-2.202-1.606-6.137-15.415-2.833-9.943-6.676-24.356-8.539-32.03l-3.388-13.951-13.768.352-13.769.351-5.334 20.625c-2.934 11.344-6.961 25.688-8.95 31.875l-3.617 11.25-5.183-26.875c-2.852-14.78-5.538-29.265-5.97-32.187l-.785-5.313H61.77c-10.116 0-11.157.216-10.544 2.188 2.59 8.324 17.003 67.668 18.216 75l1.498 9.062h25.597l3.43-12.286zm147.487 10.31c.418-1.088.76-4.336.76-7.219v-5.24l-21.25.487-21.25.487v-22.428l9.374-.709c5.156-.39 13.594-.39 18.75 0l9.375.71V471.23l-18.75.602-18.75.602v-22.87l21.25.836 21.25.835v-5.718c0-10.336 2.217-9.673-32.321-9.673h-30.804v86.25h30.804c26.936 0 30.899-.248 31.562-1.977zm24.8-28.21l.334-30.185 20 30.156 20 30.155 12.5.024 12.5.025.202-43.12.201-43.119h-19.778v30.794c0 30.177-.046 30.734-2.307 27.812-1.268-1.64-10.33-15.496-20.138-30.793l-17.831-27.813h-25.349v86.25h19.331l.334-30.185zm-493.973-103.251c.037-146.266.528-270.33 1.09-275.699.848-8.077 1.664-10.558 4.733-14.375 5.884-7.322 12.442-10.272 25.68-11.553 13.58-1.314 455.86-1.587 514.163-.317l39.891.869-15.625 1.578c-74.688 7.544-152.387 30.704-223.623 66.656-152.126 76.775-263.132 206.696-319.363 373.778-11.542 34.296-17.929 63.9-22.853 105.938-1.229 10.484-2.667 19.062-3.197 19.062-.53 0-.934-119.672-.896-265.937z"/></g></svg>