<svg height="512.00025pt" viewBox="0 0 512.00025 512.00025" width="512.00025pt" xmlns="http://www.w3.org/2000/svg"><path d="m452 182c-33.089844 0-60 26.910156-60 60s26.910156 60 60 60 60-26.910156 60-60-26.910156-60-60-60zm0 0"/><path d="m452 392c-33.089844 0-60 26.910156-60 60s26.910156 60 60 60 60-26.910156 60-60-26.910156-60-60-60zm0 0"/><path d="m287 422c-24.8125 0-45 20.1875-45 45s20.1875 45 45 45 45-20.1875 45-45-20.1875-45-45-45zm0 0"/><path d="m135 330c24.8125 0 45-20.1875 45-45s-20.1875-45-45-45-45 20.1875-45 45 20.1875 45 45 45zm0 0"/><path d="m238.632812 404.613281c-12.335937-8.246093-26.734374-12.613281-41.632812-12.613281-30.703125 0-57.15625 18.546875-68.746094 45.027344l-102.648437-102.632813c-5.859375-5.859375-15.351563-5.859375-21.210938 0-5.859375 5.859375-5.859375 15.351563 0 21.210938l122 122c4.328125 4.332031 10.820313 5.558593 16.347657 3.253906 5.609374-2.316406 9.257812-7.792969 9.257812-13.859375 0-24.8125 20.1875-45 45-45 8.9375 0 17.5625 2.609375 24.933594 7.546875 6.882812 4.613281 16.199218 2.765625 20.8125-4.117187 4.613281-6.886719 2.769531-16.203126-4.113282-20.816407zm0 0"/><path d="m387.605469 366.394531-212-212c-5.859375-5.859375-15.351563-5.859375-21.210938 0s-5.859375 15.351563 0 21.210938l212 212c5.859375 5.859375 15.351563 5.859375 21.210938 0s5.859375-15.351563 0-21.210938zm0 0"/><path d="m387.605469 177.605469c5.859375-5.859375 5.859375-15.351563 0-21.210938l-152-152c-5.859375-5.859375-15.351563-5.859375-21.210938 0s-5.859375 15.351563 0 21.210938l152 152c5.859375 5.859375 15.351563 5.859375 21.210938 0zm0 0"/><path d="m64.394531 235.605469c5.859375 5.859375 15.351563 5.859375 21.210938 0s5.859375-15.351563 0-21.210938l-60-60c-5.859375-5.859375-15.351563-5.859375-21.210938 0-5.859375 5.859375-5.859375 15.351563 0 21.210938zm0 0"/></svg>