<svg id="Layer_1" enable-background="new 0 0 1580 1580" height="512" viewBox="0 0 1580 1580" width="512" xmlns="http://www.w3.org/2000/svg"><g><g><g><g><g><path d="m1039.53 399.78v-225.35h164.74v355.04z" fill="#e66753"/><g><path d="m1326.49 632.76v785.24h-1141.13v-785.24l577.92-443.91z" fill="#dfebfa"/><path d="m755.93 243.09-654.1 514.58c-21.41 16.84-52.42 13.14-69.27-8.27-16.84-21.41-13.14-52.42 8.27-69.27l715.1-562.56 715.1 562.56c21.41 16.84 25.11 47.86 8.27 69.27-16.84 21.41-47.86 25.11-69.27 8.27z" fill="#ff725c"/></g></g></g></g><path d="m338.65 867.41h341.32v550.9h-341.32z" fill="#ff725c"/><ellipse cx="755.93" cy="587.26" fill="#a3daff" rx="107.52" ry="107.52" transform="matrix(.707 -.707 .707 .707 -193.849 706.528)"/></g><g><path d="m1303.66 1133.14 238.54 238.54c21.25 21.25 21.15 55.94-.78 76.49-10.15 9.51-23.14 14.26-36.13 14.26-13.53 0-27.07-5.16-37.39-15.49l-239.02-239.02z" fill="#69b6eb"/><path d="m1443.16 1422.21 24.72 24.72c10.33 10.33 23.87 15.49 37.4 15.49 12.99 0 25.97-4.76 36.13-14.27 21.94-20.55 22.04-55.24.78-76.49l-24.25-24.25z" fill="#5593bf"/><circle cx="1135.22" cy="1039.49" fill="#5593bf" r="255.77"/><circle cx="1135.22" cy="1039.49" fill="#b3e0ff" r="187.56"/></g></g></svg>