<svg xmlns="http://www.w3.org/2000/svg" shape-rendering="geometricPrecision" text-rendering="geometricPrecision" image-rendering="optimizeQuality" fill-rule="evenodd" clip-rule="evenodd" viewBox="0 0 512 360.13"><path d="M399.08 360.13v-42.66c8.4 3.24 16.22 3.28 22.74 1.09 5.1-1.72 9.38-4.79 12.55-8.8 3.15-3.97 5.17-8.83 5.77-14.14.93-8.26-1.56-17.65-8.61-26.42v.01a7.42 7.42 0 0 0-1.23-1.21L225.85 108.36c-2.65-2.43-6.74-2.68-9.67-.4L11.25 267.27l.01.01c-.31.24-.61.51-.89.81C.88 278.31-1.48 289.64.82 299.21c1.13 4.72 3.4 8.98 6.52 12.47 3.11 3.49 7.08 6.22 11.6 7.85 7.18 2.6 15.7 2.5 24.34-1.58v42.18h20.05V309.1c0-3.63 140.57-114.73 156.1-126.81 16.46 12.52 159.59 122.73 159.59 127.37v50.47h20.06zM225.3 249.3v46.38h43.51v-.13c0-13.37-5.48-23.42-14.29-32.23-7.68-7.68-17.9-12.83-29.22-14.02zm0 56.63v27.5h43.51v-27.5H225.3zm-10.24 27.47v-27.47h-43.51v27.5h43.51v-.03zm0-37.72V249.3c-11.35 1.21-21.54 6.34-29.22 14.02-8.82 8.81-14.29 18.86-14.29 32.23v.13h43.51zm5.12-56.89c16.2 0 30.91 6.63 41.56 17.28 10.68 10.67 17.28 23.28 17.28 39.45v48.1H161.31v-48.1c0-16.2 6.63-28.81 17.28-39.45 10.67-10.65 25.39-17.28 41.59-17.28zM512 168.11l-28.15 34.01C351.13 89.62 468 187.39 336.76 75.42l-8.25 10.08 8.65 7.08-23.41 28.52-42.59-34.63 23.36-28.81 9.47 7.75 8.25-10.07-11.85-9.71 21.76-26.87 11.98 9.85 12.49-15.24c3.27-3.94 6.76-7.02 10.49-9.2 20.74-12.02 42.46 4.31 55.97 19.15-27.03-8.05-39.39 7.11-54.4 25.35 57.8 44.28 96.45 73.99 153.32 119.44zm-407.68-49-61.52 2.52v83.11l61.52-40.63v-45z"/></svg>