<svg height="423pt" viewBox="0 -20 423.25675 423" width="423pt" xmlns="http://www.w3.org/2000/svg"><path d="m6.828125 198.101562c-3.773437 0-6.828125-3.054687-6.828125-6.828124v-109.226563c0-3.769531 3.054688-6.824219 6.828125-6.824219h109.226563c3.769531 0 6.824218 3.054688 6.824218 6.824219 0 3.773437-3.054687 6.828125-6.824218 6.828125h-102.402344v102.398438c0 3.773437-3.054688 6.828124-6.824219 6.828124zm0 0"/><path d="m6.828125 266.367188c-3.773437 0-6.828125-3.054688-6.828125-6.824219v-75.386719c0-2.652344 1.539062-5.074219 3.945312-6.191406l54.613282-25.394532c1.828125-.839843 3.933594-.839843 5.761718 0l47.304688 21.992188c3.421875 1.59375 4.902344 5.652344 3.316406 9.074219-1.59375 3.417969-5.640625 4.910156-9.074218 3.3125l-44.425782-20.660157-47.789062 22.222657v71.035156c0 3.765625-3.054688 6.820313-6.824219 6.820313zm0 0"/><path d="m6.828125 349.128906c-3.773437 0-6.828125-3.054687-6.828125-6.828125v-86.152343c0-2.28125 1.132812-4.40625 3.035156-5.671876l51.199219-34.261718c2.292969-1.53125 5.292969-1.53125 7.589844 0l51.199219 34.261718c1.898437 1.265626 3.03125 3.390626 3.03125 5.671876v78.78125c0 3.769531-3.054688 6.824218-6.828126 6.824218-3.773437 0-6.828124-3.054687-6.828124-6.824218v-75.136719l-44.371094-29.691407-44.375 29.691407v82.507812c0 3.773438-3.054688 6.828125-6.824219 6.828125zm0 0"/><path d="m109.226562 198.101562c-3.773437 0-6.828124-3.054687-6.828124-6.828124v-109.226563c0-3.769531 3.054687-6.824219 6.828124-6.824219h109.226563c3.773437 0 6.828125 3.054688 6.828125 6.824219 0 3.773437-3.054688 6.828125-6.828125 6.828125h-102.398437v102.398438c0 3.773437-3.054688 6.828124-6.828126 6.828124zm0 0"/><path d="m109.226562 266.367188c-3.773437 0-6.828124-3.054688-6.828124-6.824219v-75.386719c0-2.652344 1.539062-5.074219 3.949218-6.191406l54.613282-25.394532c1.824218-.839843 3.929687-.839843 5.761718 0l47.304688 21.992188c3.417968 1.59375 4.902344 5.652344 3.3125 9.074219-1.59375 3.417969-5.632813 4.910156-9.070313 3.3125l-44.429687-20.660157-47.785156 22.222657v71.035156c0 3.765625-3.054688 6.820313-6.828126 6.820313zm0 0"/><path d="m109.226562 342.300781c-3.773437 0-6.828124-3.054687-6.828124-6.824219v-79.328124c0-2.28125 1.136718-4.40625 3.035156-5.671876l51.199218-34.261718c2.296876-1.53125 5.296876-1.53125 7.589844 0l51.199219 34.261718c1.898437 1.265626 3.03125 3.390626 3.03125 5.671876v78.78125c0 3.769531-3.054687 6.824218-6.828125 6.824218-3.769531 0-6.824219-3.054687-6.824219-6.824218v-75.136719l-44.375-29.691407-44.371093 29.691407v75.683593c0 3.769532-3.054688 6.824219-6.828126 6.824219zm0 0"/><path d="m211.625 198.101562c-3.769531 0-6.824219-3.054687-6.824219-6.828124v-109.226563c0-3.769531 3.054688-6.824219 6.824219-6.824219h54.613281c3.773438 0 6.828125 3.054688 6.828125 6.824219 0 3.773437-3.054687 6.828125-6.828125 6.828125h-47.785156v102.398438c0 3.773437-3.054687 6.828124-6.828125 6.828124zm0 0"/><path d="m211.625 266.367188c-3.769531 0-6.824219-3.054688-6.824219-6.824219v-75.386719c0-2.652344 1.539063-5.074219 3.945313-6.191406l51.199218-23.808594c3.433594-1.566406 7.480469-.101562 9.074219 3.3125 1.585938 3.421875.105469 7.480469-3.316406 9.074219l-47.25 21.964843v71.035157c0 3.769531-3.054687 6.824219-6.828125 6.824219zm0 0"/><path d="m211.625 342.300781c-3.769531 0-6.824219-3.054687-6.824219-6.824219v-79.328124c0-2.28125 1.132813-4.40625 3.035157-5.671876l51.199218-34.261718c2.292969-1.53125 5.292969-1.53125 7.585938 0l51.203125 34.261718c1.898437 1.265626 3.03125 3.390626 3.03125 5.671876v78.78125c0 3.769531-3.054688 6.824218-6.824219 6.824218-3.773438 0-6.828125-3.054687-6.828125-6.824218v-75.136719l-44.371094-29.691407-44.378906 29.691407v75.683593c0 3.769532-3.054687 6.824219-6.828125 6.824219zm0 0"/><path d="m416.425781 266.367188c-3.769531 0-6.824219-3.054688-6.824219-6.824219v-170.667969h-44.621093c-3.769531 0-6.828125-3.054688-6.828125-6.828125 0-3.769531 3.058594-6.824219 6.828125-6.824219h51.445312c3.773438 0 6.828125 3.054688 6.828125 6.824219v177.496094c0 3.769531-3.054687 6.824219-6.828125 6.824219zm0 0"/><path d="m415.9375 187.582031c-.957031 0-1.9375-.207031-2.871094-.636719l-44.425781-20.65625-.785156.367188c-3.40625 1.605469-7.46875.105469-9.066407-3.324219-1.585937-3.417969-.097656-7.46875 3.320313-9.0625l3.660156-1.703125c1.8125-.839844 3.925781-.839844 5.753907 0l47.304687 21.992188c3.421875 1.59375 4.902344 5.652344 3.316406 9.074218-1.164062 2.488282-3.632812 3.949219-6.207031 3.949219zm0 0"/><path d="m314.027344 266.367188c-3.773438 0-6.828125-3.054688-6.828125-6.824219v-75.386719c0-3.773438 3.054687-6.828125 6.828125-6.828125 3.769531 0 6.824218 3.054687 6.824218 6.828125v75.386719c0 3.769531-3.054687 6.824219-6.824218 6.824219zm0 0"/><path d="m416.425781 348.582031c-3.769531 0-6.824219-3.054687-6.824219-6.828125v-81.960937l-44.375-29.691407-44.375 29.691407v75.683593c0 3.769532-3.054687 6.824219-6.824218 6.824219-3.773438 0-6.828125-3.054687-6.828125-6.824219v-79.328124c0-2.28125 1.132812-4.40625 3.035156-5.671876l51.199219-34.261718c2.292968-1.53125 5.296875-1.53125 7.589844 0l51.199218 34.261718c1.902344 1.265626 3.035156 3.390626 3.035156 5.671876v85.605468c-.003906 3.773438-3.058593 6.828125-6.832031 6.828125zm0 0"/><path d="m416.425781 384.085938c-1.300781 0-2.601562-.371094-3.726562-1.105469l-48.878907-31.851563-48.046874 30.796875c-2.300782 1.460938-5.238282 1.429688-7.484376-.070312l-45.722656-30.640625-46 30.648437c-2.289062 1.523438-5.261718 1.523438-7.5625.011719l-46.539062-30.847656-53.640625 31.0625c-2.359375 1.367187-5.316407 1.195312-7.507813-.441406l-40.609375-30.363282-50.234375 31.753906c-2.113281 1.320313-4.773437 1.40625-6.941406.207032-2.179688-1.199219-3.53125-3.488282-3.53125-5.980469v-34.957031c0-2.34375 1.203125-4.519532 3.179688-5.773438l54.257812-34.257812c2.355469-1.496094 5.378906-1.40625 7.652344.246094l42.191406 30.566406 52.84375-30.933594c2.246094-1.3125 5.058594-1.238281 7.226562.210938l46.113282 30.664062 46.179687-30.664062c2.292969-1.519532 5.269531-1.515626 7.546875-.007813l46.339844 30.691406 46.605469-30.699219c2.273437-1.503906 5.207031-1.5 7.480469-.019531l52.535156 34.257813c1.929687 1.261718 3.097656 3.414062 3.097656 5.722656v34.957031c0 2.507813-1.371094 4.808594-3.574219 6.003907-1.015625.539062-2.128906.8125-3.25.8125zm-153.84375-47.910157c1.328125 0 2.652344.382813 3.796875 1.152344l45.792969 30.691406 47.996094-30.765625c2.273437-1.449218 5.167969-1.449218 7.414062.027344l42.019531 27.382812v-18.664062l-45.6875-29.796875-46.632812 30.71875c-2.289062 1.511719-5.246094 1.496094-7.519531-.003906l-46.328125-30.679688-46.183594 30.671875c-2.300781 1.523438-5.273438 1.511719-7.5625 0l-46.347656-30.820312-53.003906 31.027344c-2.335938 1.367187-5.253907 1.234374-7.453126-.363282l-42.0625-30.46875-47.167968 29.777344v18.808594l43.734375-27.640625c2.378906-1.5 5.460937-1.402344 7.734375.304687l40.765625 30.480469 53.398437-30.917969c2.234375-1.300781 5.03125-1.21875 7.191406.210938l46.289063 30.679687 46.027344-30.667969c1.144531-.765624 2.46875-1.144531 3.789062-1.144531zm0 0"/><path d="m361.8125 47.914062h-95.574219c-3.769531 0-6.824219-3.054687-6.824219-6.824218v-34.136719c0-3.769531 3.054688-6.824219 6.824219-6.824219h95.574219c3.773438 0 6.828125 3.054688 6.828125 6.824219v34.136719c0 3.769531-3.054687 6.824218-6.828125 6.824218zm-88.746094-13.652343h81.921875v-20.480469h-81.921875zm0 0"/><path d="m313.753906 187.582031c-.769531 0-1.539062-.125-2.273437-.386719l-47.515625-16.785156c-2.726563-.96875-4.550782-3.546875-4.550782-6.441406v-122.878906c0-3.773438 3.054688-6.828125 6.824219-6.828125h95.574219c3.773438 0 6.828125 3.054687 6.828125 6.828125v122.878906c0 2.902344-1.832031 5.484375-4.574219 6.449219l-48.058594 16.785156c-.734374.253906-1.492187.378906-2.253906.378906zm-40.6875-28.441406 40.699219 14.382813 41.222656-14.402344v-111.207032h-81.921875zm0 0"/><path d="m361.8125 82.046875h-40.960938c-3.769531 0-6.824218-3.054687-6.824218-6.824219 0-3.773437 3.054687-6.828125 6.824218-6.828125h40.960938c3.773438 0 6.828125 3.054688 6.828125 6.828125 0 3.769532-3.054687 6.824219-6.828125 6.824219zm0 0"/><path d="m307.199219 116.183594h-40.960938c-3.769531 0-6.824219-3.058594-6.824219-6.828125 0-3.773438 3.054688-6.828125 6.824219-6.828125h40.960938c3.773437 0 6.828125 3.054687 6.828125 6.828125 0 3.769531-3.054688 6.828125-6.828125 6.828125zm0 0"/></svg>