<svg id="snow" enable-background="new 0 0 300 300" height="512" viewBox="0 0 300 300" width="512" xmlns="http://www.w3.org/2000/svg"><g><path d="m264.378 95.217c1.387-1.027 1.961-2.828 1.422-4.469-.543-1.641-2.074-2.748-3.801-2.748h-28c-.855 0-1.688.275-2.379.783l-184 136c-1.387 1.027-1.961 2.828-1.422 4.469.543 1.641 2.074 2.748 3.801 2.748h28c.855 0 1.688-.275 2.379-.783l21.621-15.981v40.764c0 2.209 1.789 4 4 4s4-1.791 4-4v-46.677zm-187.695 128.783h-14.543l173.176-128h14.543z"/><path d="m261.999 176h-52c-2.211 0-4 1.791-4 4v76c0 2.209 1.789 4 4 4s4-1.791 4-4v-72h48c2.211 0 4-1.791 4-4s-1.789-4-4-4z"/><path d="m261.999 188h-40c-2.211 0-4 1.791-4 4v64c0 2.209 1.789 4 4 4s4-1.791 4-4v-60h36c2.211 0 4-1.791 4-4s-1.789-4-4-4z"/><path d="m121.999 152c2.211 0 4-1.791 4-4v-3.03l8.969-8.97h3.031c2.211 0 4-1.791 4-4s-1.789-4-4-4h-3.031l-8.969-8.97v-3.03c0-2.209-1.789-4-4-4s-4 1.791-4 4v3.03l-8.969 8.97h-3.031c-2.211 0-4 1.791-4 4s1.789 4 4 4h3.031l8.969 8.97v3.03c0 2.209 1.79 4 4 4zm0-25.656 5.656 5.656-5.656 5.656-5.656-5.656z"/><path d="m101.999 64h3.031l8.969 8.97v3.03c0 2.209 1.789 4 4 4s4-1.791 4-4v-3.03l8.969-8.97h3.031c2.211 0 4-1.791 4-4s-1.789-4-4-4h-3.031l-8.969-8.97v-3.03c0-2.209-1.789-4-4-4s-4 1.791-4 4v3.03l-8.969 8.97h-3.031c-2.211 0-4 1.791-4 4s1.79 4 4 4zm16-9.656 5.657 5.656-5.656 5.656-5.657-5.656z"/><path d="m165.999 64h3.031l8.969 8.97v3.03c0 2.209 1.789 4 4 4s4-1.791 4-4v-3.03l8.969-8.97h3.031c2.211 0 4-1.791 4-4s-1.789-4-4-4h-3.031l-8.969-8.97v-3.03c0-2.209-1.789-4-4-4s-4 1.791-4 4v3.03l-8.969 8.97h-3.031c-2.211 0-4 1.791-4 4s1.79 4 4 4zm16-9.656 5.657 5.656-5.656 5.656-5.657-5.656z"/><path d="m50.097 163.516c-.021.166-.098.312-.098.484v4c0 2.209 1.789 4 4 4s4-1.791 4-4v-4c0-.172-.077-.318-.098-.485l9.067-9.068h3.031c2.211 0 4-1.791 4-4s-1.789-4-4-4h-3.031l-8.969-8.97v-3.03c0-2.209-1.789-4-4-4s-4 1.791-4 4v3.03l-8.969 8.97h-3.031c-2.211 0-4 1.791-4 4s1.789 4 4 4h3.031zm3.902-18.725 5.656 5.656-5.656 5.656-5.656-5.656z"/><path d="m61.999 100h3.031l8.969 8.97v3.03c0 2.209 1.789 4 4 4s4-1.791 4-4v-3.03l8.969-8.97h3.031c2.211 0 4-1.791 4-4s-1.789-4-4-4h-3.031l-8.969-8.97v-3.03c0-2.209-1.789-4-4-4s-4 1.791-4 4v3.03l-8.969 8.97h-3.031c-2.211 0-4 1.791-4 4s1.79 4 4 4zm16-9.656 5.657 5.656-5.656 5.656-5.657-5.656z"/><path d="m141.031 99.039h-3.031c-2.211 0-4 1.791-4 4s1.789 4 4 4h3.031l8.969 8.97v3.03c0 2.209 1.789 4 4 4s4-1.791 4-4v-3.03l8.969-8.97h3.031c2.211 0 4-1.791 4-4s-1.789-4-4-4h-3.031l-8.969-8.969v-3.031c0-2.209-1.789-4-4-4s-4 1.791-4 4v3.031zm12.968 9.656-5.656-5.656 5.656-5.656 5.656 5.656z"/></g></svg>