<svg id="Capa_1" enable-background="new 0 0 512 512" height="512" viewBox="0 0 512 512" width="512" xmlns="http://www.w3.org/2000/svg"><path d="m471.762 433.253h-431.524v-281.571c0-17.79 14.422-32.211 32.211-32.211h367.101c17.79 0 32.211 14.422 32.211 32.211v281.571z" fill="#fff5f5"/><path d="m73.347 433.253v-271.627c0-5.81 4.71-10.519 10.519-10.519h344.268c5.81 0 10.519 4.71 10.519 10.519v271.627z" fill="#d5f3f7"/><path d="m428.134 151.107h-34.168c5.81 0 10.519 4.71 10.519 10.519v271.627h34.168v-271.627c0-5.809-4.709-10.519-10.519-10.519z" fill="#a7e8f1"/><path d="m366.45 433.253-3.599-53.192c-1.117-16.504-13.089-30.244-29.284-33.609l-52.731-10.956h-48.682l-52.731 10.956c-16.196 3.365-28.168 17.105-29.284 33.609l-3.599 53.192z" fill="#ff646f"/><path d="m362.85 380.061c-1.117-16.504-13.089-30.244-29.284-33.609l-52.731-10.956h-33.996l52.731 10.956c16.196 3.365 28.168 17.105 29.284 33.609l3.599 53.192h33.996z" fill="#ff4755"/><path d="m280.835 335.496v-33.13h-48.682v33.13c0 13.443 10.898 24.341 24.341 24.341 13.443 0 24.341-10.898 24.341-24.341z" fill="#fff3de"/><path d="m316.634 239.696h-11.897v-6.027c0-12.902-5.297-25.404-15.074-33.823-7.665-6.6-18.44-12.361-32.674-12.52-14.233.159-25.008 5.92-32.674 12.52-9.777 8.419-15.074 20.921-15.074 33.823v4.895h-11.897v23.015c0 6.578 5.332 11.91 11.91 11.91.269 12.542 5.54 24.613 15.061 32.812 7.665 6.6 18.44 14.826 32.674 14.985 14.233-.159 25.008-8.384 32.674-14.985 9.521-8.198 14.792-20.27 15.061-32.812 6.578 0 11.91-5.332 11.91-11.91z" fill="#fff3de"/><path d="m304.737 239.696v-6.027c0-12.902-5.297-25.404-15.074-33.823-3.424-2.948-7.473-5.725-12.169-7.914 3.179 4.338 5.068 9.742 5.068 15.598v53.833c0 33.98-9.146 48.712-26.877 59.862.435.02.863.056 1.305.061 14.234-.159 25.008-8.384 32.674-14.985 9.521-8.198 14.792-20.27 15.061-32.812 6.578 0 11.91-5.332 11.91-11.91v-21.883z" fill="#ffe5c2"/><path d="m316.634 248.725s-11.643-3.472-20.452-13.24c-5.25-5.822-13.74-7.349-20.565-3.494-17.649 9.969-49.956 23.582-78.272 10.353v-17.408c0-22.684 18.389-41.074 41.074-41.074h24.422c5.42 0 10.691 1.776 15.005 5.057 4.159 3.163 9.212 4.931 14.436 5.05 13.539.311 24.352 11.375 24.352 24.918z" fill="#ffc265"/><path d="m470.539 464.102h-429.078c-22.898 0-41.461-18.563-41.461-41.461 0-7.123 5.774-12.897 12.897-12.897h486.205c7.123 0 12.897 5.774 12.897 12.897.001 22.898-18.562 41.461-41.46 41.461z" fill="#e1d3ce"/><path d="m183.887 409.743v5.6c0 11.918 9.661 21.579 21.579 21.579h101.068c11.918 0 21.579-9.661 21.579-21.579v-5.6z" fill="#fff5f5"/><path d="m481.029 47.898h-143.771c-12.963 0-23.471 10.508-23.471 23.471v71.666c0 12.963 10.508 23.471 23.471 23.471h15.527l-17.391 35.334c-2.466 5.009 3.043 10.184 7.889 7.41l74.668-42.744h63.079c12.963 0 23.471-10.508 23.471-23.471v-71.665c-.001-12.963-10.509-23.472-23.472-23.472z" fill="#98db7c"/><path d="m340.625 191.213-5.231 10.628c-2.466 5.009 3.043 10.184 7.889 7.41l74.668-42.744h-34.168z" fill="#6acb44"/><path d="m481.029 47.899h-34.168c12.963 0 23.471 10.508 23.471 23.471v71.666c0 12.963-10.508 23.471-23.471 23.471h34.168c12.963 0 23.471-10.508 23.471-23.471v-71.666c0-12.963-10.508-23.471-23.471-23.471z" fill="#6acb44"/><g fill="#fff"><path d="m462.122 94.167h-104.654c-4.142 0-7.5-3.358-7.5-7.5s3.358-7.5 7.5-7.5h104.654c4.142 0 7.5 3.358 7.5 7.5s-3.358 7.5-7.5 7.5z"/><path d="m409.794 134.017h-52.327c-4.142 0-7.5-3.358-7.5-7.5s3.358-7.5 7.5-7.5h52.327c4.142 0 7.5 3.358 7.5 7.5s-3.357 7.5-7.5 7.5z"/></g></svg>